<svg xmlns="http://www.w3.org/2000/svg" xmlns:xlink="http://www.w3.org/1999/xlink" width="54" height="55" viewBox="0 0 54 55">
  <defs>
    <clipPath id="clip-path">
      <rect id="Rectangle_426" data-name="Rectangle 426" width="54" height="55" fill="#4db8ef"/>
    </clipPath>
  </defs>
  <g id="Mask_Group_59" data-name="Mask Group 59" clip-path="url(#clip-path)">
    <g id="Group_541" data-name="Group 541" transform="translate(0.166 -0.215)">
      <path id="Path_689" data-name="Path 689" d="M138.947,75.5l-4.967-5.079V35.746a.929.929,0,0,0-.251-.639l-6.294-6.632a.834.834,0,0,0-.606-.264H94.276a.881.881,0,0,0-.857.9v8.271A9.75,9.75,0,0,0,84.669,47.3a9.548,9.548,0,0,0,1.519,5.312,13.531,13.531,0,0,1,1.935,6.83v1.437a2.373,2.373,0,0,0,1.44,2.209v.726a2.374,2.374,0,0,0,1.429,2.205v.731a2.316,2.316,0,0,0,2.25,2.371h.179V82.169a.881.881,0,0,0,.857.9h38.846a.881.881,0,0,0,.857-.9V80.984a1.855,1.855,0,0,0,2.678-.086l2.33-2.53a2.111,2.111,0,0,0-.042-2.869Zm-11.261-44.2,3.368,3.548h-3.368Zm-41.3,16a7.726,7.726,0,1,1,15.43,0,7.794,7.794,0,0,1-1.285,4.4A15.063,15.063,0,0,0,98.422,58.5H96.435v-8.14H97.57a3.007,3.007,0,1,0-2.849-3v1.2H93.475v-1.2a2.853,2.853,0,1,0-2.849,3H91.76V58.5H89.774a15.072,15.072,0,0,0-2.106-6.809,7.783,7.783,0,0,1-1.285-4.4ZM97.013,63.81a.558.558,0,0,1-.535.564H91.813a.558.558,0,0,1-.536-.564v-.564h5.737v.564Zm1.347-2.935a.558.558,0,0,1-.536.564H90.373a.558.558,0,0,1-.536-.564V60.31H98.36Zm-6.6-12.318H90.626a1.2,1.2,0,1,1,1.135-1.2ZM94.722,58.5H93.476V50.364h1.246Zm1.714-9.946v-1.2a1.136,1.136,0,1,1,1.135,1.2ZM92.705,66.746v-.565h2.879v.565a.558.558,0,0,1-.536.564H93.241a.558.558,0,0,1-.536-.564Zm2.429,14.52V69.113A2.319,2.319,0,0,0,97.3,66.746v-.731a2.374,2.374,0,0,0,1.429-2.205v-.766a2.38,2.38,0,0,0,1.347-2.17V59.437a13.526,13.526,0,0,1,1.935-6.83,9.55,9.55,0,0,0,1.519-5.312,9.776,9.776,0,0,0-8.394-9.876v-7.4h30.838v5.729a.881.881,0,0,0,.857.9h5.437V68.7a1.839,1.839,0,0,0-1.957-.169l-2.634-2.723a13.74,13.74,0,0,0,1.874-6.961c0-7.327-5.657-13.287-12.61-13.287s-12.61,5.961-12.61,13.287,5.657,13.287,12.61,13.287a12.134,12.134,0,0,0,7.583-2.678l2.535,2.621a2.111,2.111,0,0,0-.159.837,2.07,2.07,0,0,0,.583,1.426l4.785,4.892v2.03H95.133Zm33.028-10.576-2.34-2.42q.443-.464.843-.974l2.367,2.447Zm-11.222-.361c-6.007,0-10.9-5.15-10.9-11.481s4.887-11.481,10.9-11.481,10.9,5.15,10.9,11.481S122.948,70.329,116.94,70.329Zm20.818,6.781-2.33,2.53a.206.206,0,0,1-.3,0l-6.453-6.6a.225.225,0,0,1-.063-.156.229.229,0,0,1,.059-.158L131,70.2a.206.206,0,0,1,.148-.066h0a.2.2,0,0,1,.147.062l6.453,6.6a.233.233,0,0,1,0,.314ZM116.94,49.053a9.809,9.809,0,1,0,9.3,9.8A9.566,9.566,0,0,0,116.94,49.053Zm0,17.784a8,8,0,1,1,7.582-7.989A7.8,7.8,0,0,1,116.94,66.838ZM105.717,35.594a.881.881,0,0,1,.857-.9h14.253a.9.9,0,0,1,0,1.806H106.574A.88.88,0,0,1,105.717,35.594Zm0,5.486a.881.881,0,0,1,.857-.9h14.253a.9.9,0,0,1,0,1.806H106.574A.88.88,0,0,1,105.717,41.08Zm15.967,35.342a.881.881,0,0,1-.857.9H106.574a.9.9,0,0,1,0-1.806h14.252A.881.881,0,0,1,121.684,76.422Z" transform="translate(-84.669 -28.211)" fill="#4db8ef"/>
    </g>
  </g>
</svg>
