<svg xmlns="http://www.w3.org/2000/svg" xmlns:xlink="http://www.w3.org/1999/xlink" width="55" height="55" viewBox="0 0 55 55">
  <defs>
    <clipPath id="clip-path">
      <rect id="Rectangle_423" data-name="Rectangle 423" width="55" height="55" fill="#77c7f1"/>
    </clipPath>
  </defs>
  <g id="Mask_Group_57" data-name="Mask Group 57" clip-path="url(#clip-path)">
    <g id="Group_536" data-name="Group 536" transform="translate(-0.62 0.357)">
      <path id="Path_671" data-name="Path 671" d="M138.143,21.183h-2.762V19.342a1.841,1.841,0,0,0-1.842-1.842H92.1a4.609,4.609,0,0,0-4.6,4.6V68.143a4.609,4.609,0,0,0,4.6,4.6h41.435a1.841,1.841,0,0,0,1.842-1.842V59.856h2.762a4.609,4.609,0,0,0,4.6-4.6V25.787a4.609,4.609,0,0,0-4.6-4.6ZM92.1,19.342h2.762V61.7H92.1a4.557,4.557,0,0,0-2.762.945V22.1A2.762,2.762,0,0,1,92.1,19.341Zm0,51.564a2.762,2.762,0,0,1-2.762-2.762V66.3A2.762,2.762,0,0,1,92.1,63.539h41.435V66.3H92.1a.921.921,0,1,0,0,1.842h41.435v2.762ZM133.539,61.7H96.708V19.342h36.831v1.842H116.044a4.609,4.609,0,0,0-4.6,4.6V55.252a4.609,4.609,0,0,0,4.6,4.6h17.495Zm7.366-6.445a2.762,2.762,0,0,1-2.762,2.762h-22.1a2.762,2.762,0,0,1-2.762-2.762V25.787a2.762,2.762,0,0,1,2.762-2.762h22.1a2.762,2.762,0,0,1,2.762,2.762Z" transform="translate(-87.5 -17.5)" fill="#77c7f1"/>
      <path id="Path_672" data-name="Path 672" d="M368.133,87.5H354.317A4.322,4.322,0,0,0,350,91.817v3.454a4.322,4.322,0,0,0,4.317,4.317h13.816a4.322,4.322,0,0,0,4.317-4.317V91.817a4.322,4.322,0,0,0-4.317-4.317Zm2.59,7.771a2.59,2.59,0,0,1-2.59,2.59H354.317a2.59,2.59,0,0,1-2.59-2.59V91.817a2.59,2.59,0,0,1,2.59-2.59h13.816a2.59,2.59,0,0,1,2.59,2.59Z" transform="translate(-320.658 -80.592)" fill="#77c7f1"/>
      <path id="Path_673" data-name="Path 673" d="M353.454,227.5a3.453,3.453,0,1,0,2.442,1.011A3.455,3.455,0,0,0,353.454,227.5Zm0,5.181a1.727,1.727,0,1,1,1.221-.506A1.728,1.728,0,0,1,353.454,232.681Z" transform="translate(-322.112 -205.19)" fill="#77c7f1"/>
      <path id="Path_674" data-name="Path 674" d="M432.2,227.5a3.453,3.453,0,1,0,2.442,1.011A3.455,3.455,0,0,0,432.2,227.5Zm0,5.181a1.727,1.727,0,1,1,1.221-.506A1.727,1.727,0,0,1,432.2,232.681Z" transform="translate(-392.496 -205.19)" fill="#77c7f1"/>
      <path id="Path_675" data-name="Path 675" d="M353.454,315a3.453,3.453,0,1,0,2.442,1.011A3.456,3.456,0,0,0,353.454,315Zm0,5.181a1.727,1.727,0,1,1,1.221-.506A1.728,1.728,0,0,1,353.454,320.181Z" transform="translate(-322.112 -283.394)" fill="#77c7f1"/>
      <path id="Path_676" data-name="Path 676" d="M432.2,315a3.453,3.453,0,1,0,2.442,1.011A3.455,3.455,0,0,0,432.2,315Zm0,5.181a1.727,1.727,0,1,1,1.221-.506A1.728,1.728,0,0,1,432.2,320.181Z" transform="translate(-392.496 -283.394)" fill="#77c7f1"/>
      <path id="Path_677" data-name="Path 677" d="M510.954,227.5a3.453,3.453,0,0,0-3.454,3.454v8.635a3.454,3.454,0,1,0,6.908,0v-8.635a3.453,3.453,0,0,0-3.454-3.454Zm1.727,12.089a1.727,1.727,0,1,1-3.454,0v-8.635a1.727,1.727,0,0,1,3.454,0Z" transform="translate(-462.615 -204.812)" fill="#77c7f1"/>
    </g>
  </g>
</svg>
