<svg xmlns="http://www.w3.org/2000/svg" width="80.001" height="80" viewBox="0 0 80.001 80">
  <g id="Group_4023" data-name="Group 4023" transform="translate(0.5 0.5)">
    <path id="Path_5109" data-name="Path 5109" d="M334.3,519.331a3.086,3.086,0,1,1-3.086-3.086,3.086,3.086,0,0,1,3.086,3.086" transform="translate(-291.715 -443.417)" fill="#4db8ef" stroke="#4db8ef" stroke-width="1"/>
    <path id="Path_5110" data-name="Path 5110" d="M592.422,261.211a3.086,3.086,0,1,1-3.086-3.086,3.086,3.086,0,0,1,3.086,3.086" transform="translate(-513.421 -221.711)" fill="#4db8ef" stroke="#4db8ef" stroke-width="1"/>
    <path id="Path_5111" data-name="Path 5111" d="M76.172,261.211a3.086,3.086,0,1,1-3.086-3.086,3.086,3.086,0,0,1,3.086,3.086" transform="translate(-70 -221.711)" fill="#4db8ef" stroke="#4db8ef" stroke-width="1"/>
    <path id="Path_5112" data-name="Path 5112" d="M512.767,438.408a3.086,3.086,0,1,1-4.364,0,3.086,3.086,0,0,1,4.364,0" transform="translate(-445.779 -375.785)" fill="#4db8ef" stroke="#4db8ef" stroke-width="1"/>
    <path id="Path_5113" data-name="Path 5113" d="M149.643,75.278a3.086,3.086,0,1,1-4.365,0,3.086,3.086,0,0,1,4.365,0" transform="translate(-133.883 -63.882)" fill="#4db8ef" stroke="#4db8ef" stroke-width="1"/>
    <path id="Path_5114" data-name="Path 5114" d="M149.637,438.407a3.086,3.086,0,1,1-4.364,0,3.086,3.086,0,0,1,4.364,0" transform="translate(-133.877 -375.783)" fill="#4db8ef" stroke="#4db8ef" stroke-width="1"/>
    <path id="Path_5115" data-name="Path 5115" d="M176.759,73.231a4.033,4.033,0,0,1,3.264,1.928,6.362,6.362,0,0,1,1.817-1.727,6.577,6.577,0,0,0-3.849-2.529,30.061,30.061,0,0,0-3.352-7.816,6.608,6.608,0,0,0,.607-4,6.394,6.394,0,0,1-2.522-.048,4.834,4.834,0,0,1,.133.9,3.734,3.734,0,0,1-1.022,2.885l-1.4,1.4-7.692-7.693,1.4-1.4a3.7,3.7,0,0,1,2.651-1.029,4.754,4.754,0,0,1,1.131.143,6.375,6.375,0,0,1-.05-2.521,7.157,7.157,0,0,0-1.081-.091,6.369,6.369,0,0,0-3.157.817,30.076,30.076,0,0,0-6.961-2.856,6.575,6.575,0,0,0-2.53-3.852,6.363,6.363,0,0,1-1.728,1.816,4.033,4.033,0,0,1,1.929,3.263v2.046H143.238V50.818a4.032,4.032,0,0,1,1.928-3.263,6.382,6.382,0,0,1-1.727-1.816,6.579,6.579,0,0,0-2.529,3.847,30.116,30.116,0,0,0-7.276,3.036,6.313,6.313,0,0,0-3.46-.994,7.157,7.157,0,0,0-1.081.091,6.375,6.375,0,0,1-.05,2.521,4.786,4.786,0,0,1,1.132-.143,3.7,3.7,0,0,1,2.65,1.029l1.4,1.4-7.692,7.692-1.4-1.4a3.988,3.988,0,0,1-.88-3.783,6.379,6.379,0,0,1-2.532.051,6.5,6.5,0,0,0,.914,4.531,30.114,30.114,0,0,0-3.042,7.286,6.578,6.578,0,0,0-3.847,2.529,6.369,6.369,0,0,1,1.816,1.727,4.032,4.032,0,0,1,3.263-1.929h2.045V84.34h-2.045a4.033,4.033,0,0,1-3.263-1.929,6.384,6.384,0,0,1-1.816,1.728,6.58,6.58,0,0,0,3.849,2.529,30.049,30.049,0,0,0,2.763,6.8,6.327,6.327,0,0,0-1.3,4.553,6.364,6.364,0,0,1,2.456-.232c0-.052-.013-.1-.015-.156a3.731,3.731,0,0,1,1.023-2.886l1.4-1.4,7.692,7.693-1.4,1.4a3.7,3.7,0,0,1-2.652,1.029c-.131,0-.261-.009-.391-.02a6.385,6.385,0,0,1-.233,2.457c.208.019.416.031.624.031a6.252,6.252,0,0,0,3.738-1.2,30.07,30.07,0,0,0,7.614,3.235,6.578,6.578,0,0,0,2.529,3.85,6.368,6.368,0,0,1,1.727-1.816,4.033,4.033,0,0,1-1.928-3.263v-2.045h11.109v2.045a4.033,4.033,0,0,1-1.929,3.263,6.37,6.37,0,0,1,1.728,1.816,6.575,6.575,0,0,0,2.528-3.847,30.057,30.057,0,0,0,7.277-3.036,6.319,6.319,0,0,0,3.458.992c.207,0,.416-.013.624-.031a6.364,6.364,0,0,1-.233-2.457c-.131.011-.261.02-.391.02a3.7,3.7,0,0,1-2.651-1.029l-1.4-1.4,7.693-7.692,1.4,1.4a3.734,3.734,0,0,1,1.023,2.886c0,.052-.012.1-.015.156a6.366,6.366,0,0,1,2.456.231,6.423,6.423,0,0,0-.965-4.078,30.057,30.057,0,0,0,3.039-7.279,6.581,6.581,0,0,0,3.851-2.53,6.372,6.372,0,0,1-1.817-1.728,4.033,4.033,0,0,1-3.264,1.929h-2.045V73.23Zm-2.926,13.578h1.545a27.587,27.587,0,0,1-2.178,5.2l-1.043-1.043a1.55,1.55,0,0,0-1.1-.455,1.587,1.587,0,0,0-1.124.467l-8.947,8.947a1.573,1.573,0,0,0-.012,2.225l1.045,1.044a27.62,27.62,0,0,1-5.2,2.162v-1.532a1.6,1.6,0,0,0-1.6-1.587H142.374a1.6,1.6,0,0,0-1.605,1.587v1.545a27.682,27.682,0,0,1-5.6-2.4l.822-.822a1.574,1.574,0,0,0-.013-2.225l-8.947-8.947a1.584,1.584,0,0,0-1.123-.467,1.553,1.553,0,0,0-1.1.455l-.63.63a27.646,27.646,0,0,1-1.947-4.788h1.52a1.6,1.6,0,0,0,1.587-1.6V72.367a1.6,1.6,0,0,0-1.587-1.605H122.22a27.624,27.624,0,0,1,2.162-5.2l1.045,1.045a1.55,1.55,0,0,0,1.1.455,1.587,1.587,0,0,0,1.123-.467l8.947-8.947a1.572,1.572,0,0,0,.013-2.224l-1.045-1.045a27.64,27.64,0,0,1,5.2-2.162v1.532a1.6,1.6,0,0,0,1.605,1.587h12.838a1.6,1.6,0,0,0,1.6-1.587V52.213a27.622,27.622,0,0,1,4.789,1.959l-1.248,1.249a1.573,1.573,0,0,0,.012,2.224l8.947,8.947a1.585,1.585,0,0,0,1.124.467,1.55,1.55,0,0,0,1.1-.455l1.44-1.44a27.655,27.655,0,0,1,2.4,5.6h-1.545a1.6,1.6,0,0,0-1.587,1.606V85.2a1.6,1.6,0,0,0,1.587,1.6Z" transform="translate(-109.293 -39.286)" fill="#4db8ef" stroke="#4db8ef" stroke-width="1"/>
    <path id="Path_5116" data-name="Path 5116" d="M512.767,75.278a3.086,3.086,0,1,1-4.364,0,3.086,3.086,0,0,1,4.364,0" transform="translate(-445.779 -63.882)" fill="#4db8ef" stroke="#4db8ef" stroke-width="1"/>
    <path id="Path_5117" data-name="Path 5117" d="M279.115,166.25H263.068a4.952,4.952,0,0,0-4.938,4.938v22.219a4.952,4.952,0,0,0,4.938,4.938h16.047a4.952,4.952,0,0,0,4.938-4.938V171.188A4.952,4.952,0,0,0,279.115,166.25Zm2.469,27.157a2.471,2.471,0,0,1-2.469,2.469H263.068a2.471,2.471,0,0,1-2.469-2.469V171.188a2.472,2.472,0,0,1,2.469-2.469h16.047a2.471,2.471,0,0,1,2.469,2.469Z" transform="translate(-231.59 -142.797)" fill="#4db8ef" stroke="#4db8ef" stroke-width="1"/>
    <path id="Path_5118" data-name="Path 5118" d="M307.933,218.75H294.354a1.234,1.234,0,1,0,0,2.469h13.578a1.234,1.234,0,1,0,0-2.469Z" transform="translate(-261.644 -187.89)" fill="#4db8ef" stroke="#4db8ef" stroke-width="1"/>
    <path id="Path_5119" data-name="Path 5119" d="M307.933,253.75H294.354a1.234,1.234,0,1,0,0,2.469h13.578a1.234,1.234,0,1,0,0-2.469Z" transform="translate(-261.644 -217.953)" fill="#4db8ef" stroke="#4db8ef" stroke-width="1"/>
    <path id="Path_5120" data-name="Path 5120" d="M307.933,288.75H294.354a1.234,1.234,0,1,0,0,2.469h13.578a1.234,1.234,0,1,0,0-2.469Z" transform="translate(-261.644 -248.015)" fill="#4db8ef" stroke="#4db8ef" stroke-width="1"/>
    <path id="Path_5121" data-name="Path 5121" d="M307.933,323.75H294.354a1.234,1.234,0,1,0,0,2.469h13.578a1.234,1.234,0,1,0,0-2.469Z" transform="translate(-261.644 -278.078)" fill="#4db8ef" stroke="#4db8ef" stroke-width="1"/>
    <path id="Path_5122" data-name="Path 5122" d="M334.3,3.086A3.086,3.086,0,1,1,331.216,0,3.086,3.086,0,0,1,334.3,3.086" transform="translate(-291.715)" fill="#4db8ef" stroke="#4db8ef" stroke-width="1"/>
  </g>
</svg>
