<svg id="undraw_it_staff" data-name="undraw it staff" xmlns="http://www.w3.org/2000/svg" width="161.44" height="151" viewBox="0 0 161.44 151">
  <path id="Path_183" data-name="Path 183" d="M862.387,722.41c.065,6.857-43.143,7.485-43.966,0C818.355,715.554,861.564,714.926,862.387,722.41Z" transform="translate(-700.947 -576.791)" fill="#e6e6e6"/>
  <path id="Path_184" data-name="Path 184" d="M616.075,507.569l-3.211,1.751,2.044,6.714,3.211.292,1.752-3.795Z" transform="translate(-485.861 -385.754)" fill="#9f616a"/>
  <path id="Path_185" data-name="Path 185" d="M658.28,553.994V557.2l4.963-.292-.069-2.645Z" transform="translate(-520.721 -418.75)" fill="#9f616a"/>
  <path id="Path_186" data-name="Path 186" d="M619.929,374.348l1.751,21.895,5.547,32.112,8.758-1.168-2.919-25.4,1.168-23.354Z" transform="translate(-493.463 -291.066)" fill="#2f2e41"/>
  <path id="Path_187" data-name="Path 187" d="M872.862,463.6l-21.019.292-2.335,16.056,14.3,6.714,3.5,12.845L849.509,518.48l7.006,8.758s9.926-13.429,17.224-21.019,3.8-30.652,3.8-30.652Z" transform="translate(-723.042 -396.664)" fill="#2f2e41"/>
  <circle id="Ellipse_34" data-name="Ellipse 34" cx="6.422" cy="6.422" r="6.422" transform="translate(130.845 31.868)" fill="#9f616a"/>
  <path id="Path_188" data-name="Path 188" d="M878.777,306.048v6.422l4.379,7.006s6.714-4.963,5.255-6.13-1.752-10.217-1.752-10.217Z" transform="translate(-743.845 -264.739)" fill="#9f616a"/>
  <path id="Path_189" data-name="Path 189" d="M638.437,182.512l-4.379,5.255,1.752,36.491,13.72-.292,2.335-31.82-2.919-8.174-2-2.724L643.4,186.6Z" transform="translate(-503.505 -138.676)" fill="#d0cde1"/>
  <path id="Path_190" data-name="Path 190" d="M830.166,364.709l-3.211,12.261,3.211,12.261-5.255,7.006-4.671-22.186s3.5-18.1,3.795-20.143.876-2.335.876-2.335l2.335.292Z" transform="translate(-699.308 -303.374)" fill="#2f2e41"/>
  <path id="Path_191" data-name="Path 191" d="M705.714,223.611l2.043,3.8.584,6.422-1.168,7.3,4.087,6.714,4.087-18.392L710.969,205.8h-1.752Z" transform="translate(-554.435 -157.385)" fill="#2f2e41"/>
  <path id="Path_192" data-name="Path 192" d="M834.7,652.327s-4.087,1.168-5.547,1.46.876,5.839.876,5.839,1.46,7.59,1.752,9.05,2.335,6.422,4.963,7.006.876-10.217.876-10.217a26.489,26.489,0,0,0,1.168-4.671c0-1.168-1.752-.584-1.752-.584C832.365,659.625,834.7,652.327,834.7,652.327Z" transform="translate(-705.529 -530.803)" fill="#2f2e41"/>
  <path id="Path_193" data-name="Path 193" d="M882.719,712.75c.292,1.752-.292,1.752,4.379,2.335s3.5-3.211,3.5-3.211a24.531,24.531,0,0,0-1.168-5.255c-.876-2.335-5.547.584-5.547.584S882.427,711,882.719,712.75Z" transform="translate(-746.619 -568.748)" fill="#2f2e41"/>
  <path id="Path_194" data-name="Path 194" d="M873.755,275.288l.152,2.6a29.383,29.383,0,0,0,2.176-8.639c.292-4.379-4.671-5.255-7.59-5.546s-7.882,1.752-7.882,4.087,5.255,1.752,7.3,1.168,2.919,4.379,2.919,4.379l1.168.292Z" transform="translate(-730.933 -234.838)" fill="#2f2e41"/>
  <path id="Path_195" data-name="Path 195" d="M643.24,187.687l1.723-2.067,4.963,4.087-4.963,3.5Z" transform="translate(-510.031 -139.9)" fill="#d0cde1"/>
  <path id="Path_196" data-name="Path 196" d="M671.9,184.21l-2.044-2.627-3.5,5.255,4.379,3.211Z" transform="translate(-526.459 -136.898)" fill="#d0cde1"/>
  <path id="Path_197" data-name="Path 197" d="M841.485,353.373l1.168,11.093-2.335,6.714-1.46,6.423s0,6.13,5.838,6.422,10.8-18.391,10.8-18.391.876,4.087,1.46,6.422,10.509,11.677,10.509,11.677,2.335-.292,4.379-4.963-4.087-9.05-4.087-9.05l-1.751-6.13.584-7.59,4.087-19.851-12.115-6.276,1.314,16.786L855.5,359.8l-6.568-29.047-2.19,1.606-9.342,3.8Z" transform="translate(-714.435 -287.546)" fill="#2f2e41"/>
  <path id="Path_198" data-name="Path 198" d="M318.984,296.586c-.577,0-1.161-.008-1.735-.026l.018-.578c.567.017,1.148.025,1.717.026s1.154-.009,1.732-.028l.019.578C320.15,296.576,319.561,296.586,318.984,296.586Zm-5.212-.244c-1.152-.109-2.315-.257-3.457-.439l.091-.571c1.13.18,2.281.327,3.42.434Zm10.44-.006-.055-.576c1.139-.109,2.29-.257,3.42-.439l.092.571c-1.142.184-2.305.333-3.456.443Zm-17.318-1.093c-1.128-.256-2.262-.552-3.372-.88l.164-.555c1.1.325,2.22.617,3.336.87Zm24.2-.014-.129-.564c1.118-.255,2.24-.549,3.335-.874l.165.555c-1.106.329-2.241.626-3.371.883Zm-30.876-1.96c-1.088-.4-2.177-.84-3.236-1.308l.234-.529c1.048.463,2.125.9,3.2,1.294Zm37.555-.023-.2-.543c1.07-.394,2.143-.829,3.19-1.294l.235.529c-1.058.47-2.143.909-3.225,1.308Zm-43.934-2.8c-1.024-.534-2.047-1.111-3.039-1.712l.3-.495c.982.6,1.994,1.165,3.007,1.694Zm50.293-.021-.268-.513c1.011-.529,2.02-1.1,3-1.693l.3.494c-.99.6-2.01,1.177-3.032,1.712Zm-56.254-3.594c-.948-.662-1.888-1.364-2.794-2.086l.361-.453c.9.715,1.826,1.409,2.764,2.064Zm62.2-.021-.332-.474c.938-.656,1.867-1.35,2.761-2.064l.361.452c-.9.721-1.842,1.423-2.79,2.086Zm-67.652-4.325c-.857-.778-1.7-1.594-2.5-2.423l.415-.4c.8.821,1.63,1.628,2.479,2.4Zm73.095-.02-.389-.428c.846-.769,1.68-1.576,2.477-2.4l.415.4c-.806.832-1.648,1.648-2.5,2.425Zm-77.945-4.98c-.751-.88-1.483-1.8-2.176-2.721l.463-.347c.686.916,1.41,1.822,2.153,2.692Zm82.792-.024-.44-.375c.743-.871,1.467-1.778,2.152-2.7l.463.346c-.693.927-1.425,1.843-2.176,2.724ZM273.4,271.908c-.633-.969-1.242-1.97-1.81-2.975l.5-.285c.562.994,1.165,1.984,1.791,2.943Zm91.138-.031-.485-.316c.627-.961,1.229-1.953,1.791-2.949l.5.284c-.569,1.007-1.178,2.01-1.811,2.981Zm-94.564-6.027c-.5-1.041-.979-2.111-1.413-3.181l.536-.217c.43,1.058.9,2.116,1.4,3.146Zm97.991-.045-.521-.251c.5-1.032.968-2.093,1.4-3.156l.536.217c-.435,1.074-.911,2.148-1.414,3.19Zm-100.612-6.4c-.366-1.1-.7-2.223-.994-3.341l.56-.147c.29,1.106.621,2.218.983,3.3Zm103.231-.061-.549-.182c.36-1.086.69-2.2.979-3.306l.56.146c-.293,1.12-.626,2.245-.99,3.342Zm-105-6.677c-.221-1.135-.408-2.292-.556-3.44l.574-.074c.146,1.136.331,2.28.55,3.4Zm106.763-.064-.568-.11c.217-1.123.4-2.268.546-3.4l.574.073c-.147,1.148-.333,2.306-.552,3.44Zm-107.653-6.845c-.074-1.153-.112-2.325-.114-3.483h.578c0,1.146.039,2.306.113,3.447Zm108.536-.065-.577-.037c.072-1.14.109-2.3.109-3.446v-.127h.578v.125c0,1.161-.037,2.332-.11,3.484Zm-107.966-6.865-.577-.036c.072-1.155.181-2.322.326-3.469l.574.072C265.442,236.526,265.334,237.681,265.263,238.824Zm107.381-.19c-.075-1.143-.188-2.3-.335-3.431l.573-.075c.149,1.145.263,2.312.339,3.468Zm-106.516-6.647-.568-.109c.218-1.135.477-2.279.768-3.4l.56.145C266.6,229.732,266.344,230.863,266.128,231.987Zm105.627-.187c-.22-1.124-.48-2.254-.772-3.36l.559-.147c.295,1.118.557,2.26.78,3.4Zm-103.891-6.483-.549-.181c.363-1.1.767-2.2,1.2-3.277l.536.217C268.622,223.139,268.222,224.23,267.863,225.317ZM370,225.137c-.363-1.086-.766-2.173-1.2-3.233l.536-.218c.437,1.071.844,2.17,1.211,3.268Zm-99.55-6.22-.521-.251c.5-1.043,1.044-2.084,1.613-3.094l.5.284C271.48,216.855,270.943,217.885,270.447,218.917Zm96.949-.158c-.5-1.027-1.037-2.053-1.6-3.049l.5-.285c.571,1.007,1.115,2.044,1.619,3.082ZM273.83,212.9l-.485-.316c.631-.97,1.3-1.932,1.994-2.861l.464.346C275.118,210.993,274.454,211.945,273.83,212.9ZM364,212.769c-.626-.956-1.292-1.905-1.979-2.821l.463-.347c.695.926,1.368,1.885,2,2.852Zm-86.047-5.392-.441-.375c.749-.881,1.537-1.75,2.341-2.582l.416.4C279.474,205.645,278.694,206.5,277.953,207.377Zm81.912-.119c-.744-.87-1.526-1.727-2.323-2.548l.415-.4c.806.829,1.6,1.7,2.348,2.575Zm-77.121-4.838-.389-.428c.856-.78,1.747-1.541,2.649-2.263l.362.452c-.892.714-1.774,1.467-2.622,2.239Zm72.316-.1c-.848-.768-1.733-1.519-2.629-2.232l.36-.453c.906.721,1.8,1.48,2.657,2.256Zm-66.936-4.2-.332-.474c.947-.663,1.927-1.3,2.915-1.906l.3.494C290.03,196.823,289.06,197.458,288.123,198.114Zm61.541-.092c-.942-.655-1.915-1.288-2.893-1.88l.3-.495c.989.6,1.973,1.237,2.924,1.9ZM294,194.531l-.269-.512c1.023-.536,2.077-1.047,3.133-1.517l.235.529C296.059,193.495,295.016,194,294,194.531Zm49.757-.079c-1.016-.529-2.063-1.031-3.112-1.494l.234-.529c1.06.468,2.118.976,3.145,1.51Zm-43.469-2.719-.2-.543c1.085-.4,2.2-.772,3.306-1.1l.165.555c-1.1.327-2.2.694-3.27,1.091Zm37.155-.066c-1.075-.393-2.177-.757-3.274-1.079l.163-.555c1.109.326,2.223.694,3.31,1.091Zm-30.551-1.9-.129-.564c1.126-.258,2.276-.483,3.42-.668l.093.571C309.149,189.286,308.01,189.508,306.9,189.763Zm23.939-.042c-1.115-.251-2.255-.47-3.386-.649l.091-.571c1.143.181,2.295.4,3.422.656ZM313.7,188.659l-.056-.576c1.149-.111,2.318-.188,3.477-.226l.019.578c-1.146.038-2.3.113-3.44.224Zm10.33-.018c-1.138-.106-2.3-.178-3.441-.212l.017-.578c1.157.034,2.327.106,3.478.214Z" transform="translate(-254.456 -175.678)" fill="#d0cde1"/>
  <path id="Path_605" data-name="Path 605" d="M13.472,0A13.75,13.75,0,0,1,26.945,14.011,13.75,13.75,0,0,1,13.472,28.023,13.75,13.75,0,0,1,0,14.011,13.75,13.75,0,0,1,13.472,0Z" transform="translate(43.773)" fill="#0306ff"/>
  <circle id="Ellipse_36" data-name="Ellipse 36" cx="13.472" cy="13.472" r="13.472" transform="translate(91.437 31.396)" fill="#0306ff"/>
  <circle id="Ellipse_37" data-name="Ellipse 37" cx="13.472" cy="13.472" r="13.472" transform="translate(76.846 78.041)" fill="#0306ff"/>
  <path id="Path_221" data-name="Path 221" d="M13.472,0A13.472,13.472,0,1,1,0,13.472,13.472,13.472,0,0,1,13.472,0Z" transform="translate(19.4 79.835)" fill="#0306ff"/>
  <ellipse id="Ellipse_39" data-name="Ellipse 39" cx="14.011" cy="13.472" rx="14.011" ry="13.472" transform="translate(0 31.396)" fill="#0306ff"/>
  <path id="Path_199" data-name="Path 199" d="M436.758,173.04h-4.742a1.626,1.626,0,0,1-1.626-1.626v-4.742a.136.136,0,0,0-.136-.135h-3.116a2.168,2.168,0,0,0-2.168,2.168v10.839a2.168,2.168,0,0,0,2.168,2.168h7.587a2.168,2.168,0,0,0,2.168-2.168v-6.368A.135.135,0,0,0,436.758,173.04Zm-3.116,5.419h-5.419a.542.542,0,1,1,0-1.084h5.419a.542.542,0,0,1,0,1.084Zm0-2.71h-5.419a.542.542,0,0,1,0-1.084h5.419a.542.542,0,0,1,0,1.084Z" transform="translate(-373.458 -160.529)" fill="#fff"/>
  <path id="Path_201" data-name="Path 201" d="M575.609,507.508a.721.721,0,1,0,.509.211A.721.721,0,0,0,575.609,507.508Z" transform="translate(-483.32 -417.859)" fill="#fff"/>
  <path id="Path_202" data-name="Path 202" d="M561.7,496.35v0a.551.551,0,0,0-.408-.413,6.333,6.333,0,0,0-3.472.574,11.167,11.167,0,0,0-3.633,2.3,8.678,8.678,0,0,0-.8.913,3.539,3.539,0,0,0-1.581.254,4.124,4.124,0,0,0-2.122,3.162.675.675,0,0,0,.734.783h0l1.736-.189c0,.022,0,.042.007.061a.927.927,0,0,0,.267.559l.847.848a.925.925,0,0,0,.559.268l.058.006-.189,1.734v0a.675.675,0,0,0,.6.741l.063,0a.681.681,0,0,0,.112-.009,4.092,4.092,0,0,0,3.164-2.123,3.572,3.572,0,0,0,.255-1.575,8.492,8.492,0,0,0,.916-.8,11.085,11.085,0,0,0,2.3-3.6A6.443,6.443,0,0,0,561.7,496.35Zm-2.89,4.721a1.586,1.586,0,1,1,0-2.244h0a1.574,1.574,0,0,1,.017,2.226Z" transform="translate(-465.295 -410.043)" fill="#fff"/>
  <path id="Path_203" data-name="Path 203" d="M554.243,525.593a.432.432,0,0,0-.3.072c-.172.118-.346.235-.521.348a.4.4,0,0,1-.567-.54l.328-.567a.432.432,0,0,0-.409-.672,1.653,1.653,0,0,0-.962.471c-.1.1-.4.4-.561,1.546a9.684,9.684,0,0,0-.087.993.432.432,0,0,0,.421.443h.022a9.668,9.668,0,0,0,.993-.086c1.146-.162,1.447-.463,1.546-.561a1.633,1.633,0,0,0,.469-.965A.432.432,0,0,0,554.243,525.593Z" transform="translate(-465.98 -430.621)" fill="#fff"/>
  <path id="Path_204" data-name="Path 204" d="M324.169,535.785h-.985a.739.739,0,0,1-.739-.739v-4.433a.739.739,0,0,1,.739-.739h.985a.739.739,0,0,1,.739.739v4.433A.739.739,0,0,1,324.169,535.785Z" transform="translate(-295.584 -435.102)" fill="#fff"/>
  <path id="Path_205" data-name="Path 205" d="M348.006,528.524h-.985a.739.739,0,0,1-.739-.739V520.4a.739.739,0,0,1,.739-.739h.985a.739.739,0,0,1,.739.739v7.388A.739.739,0,0,1,348.006,528.524Z" transform="translate(-315.353 -427.687)" fill="#fff"/>
  <path id="Path_206" data-name="Path 206" d="M359.924,520.053h-.985a.739.739,0,0,1-.739-.739V508.48a.739.739,0,0,1,.739-.739h.985a.739.739,0,0,1,.739.739v10.835A.739.739,0,0,1,359.924,520.053Z" transform="translate(-324.112 -419.03)" fill="#fff"/>
  <path id="Path_207" data-name="Path 207" d="M336.088,514H335.1a.739.739,0,0,1-.739-.739v-13.3a.739.739,0,0,1,.739-.739h.985a.739.739,0,0,1,.739.739v13.3A.739.739,0,0,1,336.088,514Z" transform="translate(-304.055 -412.842)" fill="#fff"/>
  <path id="Path_208" data-name="Path 208" d="M612.336,317.185l-.7-.7a.863.863,0,0,0-1.217,0l-4.893,4.515a.914.914,0,0,0-.306.622.865.865,0,0,0,.248.645l1.051,1.063,0,0a.87.87,0,0,0,.611.254h.032a.905.905,0,0,0,.625-.3l4.547-4.87a.862.862,0,0,0,.005-1.22Z" transform="translate(-505.924 -274.231)" fill="#fff"/>
  <path id="Path_209" data-name="Path 209" d="M628.561,304.153l-.008-.008-.924-.914a.578.578,0,0,0-.412-.169.59.59,0,0,0-.345.112c0-.012,0-.023,0-.033a.985.985,0,0,0-.14-.68,6.95,6.95,0,0,0-.668-.775l0,0a7.3,7.3,0,0,0-2.337-1.508,3.76,3.76,0,0,0-1.431-.282,2.726,2.726,0,0,0-1.745.611,3.226,3.226,0,0,0-.382.437.431.431,0,0,0,.5.656,2.008,2.008,0,0,1,.231-.071,1.71,1.71,0,0,1,.5-.031,2.091,2.091,0,0,1,.962.353,1.385,1.385,0,0,1,.492,1.108,2.874,2.874,0,0,1-.539.929.431.431,0,0,0,.039.566l.927.927a.431.431,0,0,0,.593.017c.262-.234.662-.587.8-.674a1,1,0,0,1,.4-.156.517.517,0,0,1,.3.064.034.034,0,0,1-.008.026l-.049.047-.008.008a.58.58,0,0,0,0,.82l0,0,.923.914a.578.578,0,0,0,.412.168.585.585,0,0,0,.41-.167l1.5-1.478.015-.016A.59.59,0,0,0,628.561,304.153Z" transform="translate(-516.937 -261.897)" fill="#fff"/>
  <path id="Path_210" data-name="Path 210" d="M282.716,307.361a.54.54,0,0,1-.382-.921l1.237-1.237-1.237-1.237a.54.54,0,1,1,.763-.763l1.619,1.619a.54.54,0,0,1,0,.763L283.1,307.2A.538.538,0,0,1,282.716,307.361Z" transform="translate(-266.963 -264.175)" fill="#fff"/>
  <path id="Path_211" data-name="Path 211" d="M252.867,312.957a.54.54,0,0,1-.54-.54v-.54a3.254,3.254,0,0,1,3.236-3.238h7.017a.54.54,0,0,1,0,1.079h-7.015a2.171,2.171,0,0,0-2.158,2.16v.538a.54.54,0,0,1-.54.54Z" transform="translate(-245.748 -268.389)" fill="#fff"/>
  <path id="Path_212" data-name="Path 212" d="M263.814,327.882a.538.538,0,0,1-.382-.158l-1.619-1.619a.539.539,0,0,1,0-.763l1.619-1.619a.54.54,0,0,1,.763.763l-1.237,1.237,1.237,1.237a.54.54,0,0,1-.382.921Z" transform="translate(-252.378 -279.626)" fill="#fff"/>
  <path id="Path_213" data-name="Path 213" d="M264.06,322.285a.54.54,0,0,1,0-1.079h7.015a2.171,2.171,0,0,0,2.158-2.16v-.538a.54.54,0,1,1,1.079,0v.54a3.254,3.254,0,0,1-3.236,3.238Z" transform="translate(-253.703 -275.411)" fill="#fff"/>
</svg>
