<svg xmlns="http://www.w3.org/2000/svg" width="78.311" height="54.802" viewBox="0 0 78.311 54.802">
  <g id="Group_453" data-name="Group 453" transform="translate(0.5 0.5)">
    <path id="Path_595" data-name="Path 595" d="M123.4,112.874l-3.982-3.981-1.137,1.137,3.982,3.981a14.21,14.21,0,1,1-20.095,20.1L86.624,118.562a14.21,14.21,0,1,1,20.1-20.1l1.137-1.137a15.818,15.818,0,0,0-22.37,22.37l15.546,15.546A15.818,15.818,0,1,0,123.4,112.874Z" transform="translate(-80.862 -92.704)" fill="#00a8ff" stroke="#00a8ff" stroke-width="1"/>
    <path id="Path_596" data-name="Path 596" d="M333.281,159.03l-15.545-15.545a15.818,15.818,0,0,0-22.37,22.37l1.137-1.137a14.21,14.21,0,0,1,20.1-20.095l15.545,15.545a14.21,14.21,0,1,1-20.1,20.1l-3.981-3.981-1.137,1.137,3.981,3.981a15.819,15.819,0,0,0,22.371-22.371Z" transform="translate(-260.596 -132.224)" fill="#00a8ff" stroke="#00a8ff" stroke-width="1"/>
  </g>
</svg>
