<svg xmlns="http://www.w3.org/2000/svg" xmlns:xlink="http://www.w3.org/1999/xlink" width="83" height="67" viewBox="0 0 83 67">
  <defs>
    <clipPath id="clip-path">
      <rect id="Rectangle_341" data-name="Rectangle 341" width="83" height="67" transform="translate(0.113 -0.443)" fill="#fff"/>
    </clipPath>
  </defs>
  <g id="Mask_Group_30" data-name="Mask Group 30" transform="translate(-0.113 0.443)" clip-path="url(#clip-path)">
    <g id="Component_47_1" data-name="Component 47 – 1" transform="translate(3.53 -1.163)">
      <g id="Component_5_3" data-name="Component 5 – 3">
        <path id="Path_92" data-name="Path 92" d="M14.741,976.362a4.787,4.787,0,0,0-3.05,1.168l33.969,37.434a3.274,3.274,0,0,0,5.2,0l33.91-37.434a4.787,4.787,0,0,0-3.05-1.168Zm-5.412,5.025A9.525,9.525,0,0,0,9,983.841V1033.7a9.1,9.1,0,0,0,.927,4.051l24.311-28.859L9.329,981.386Zm77.807,0-24.849,27.461,24.251,28.9a9.1,9.1,0,0,0,.927-4.051v-49.86A9.524,9.524,0,0,0,87.136,981.387Zm-27.78,30.734-6.04,6.66a6.518,6.518,0,0,1-10.137,0l-6.01-6.621-24.131,28.669a4.539,4.539,0,0,0,1.7.35H81.723a4.539,4.539,0,0,0,1.7-.35l-24.072-28.707Z" transform="translate(-9 -976.362)" fill="#fff"/>
      </g>
    </g>
  </g>
</svg>
