<svg id="Group_162" data-name="Group 162" xmlns="http://www.w3.org/2000/svg" width="142.138" height="123.315" viewBox="0 0 142.138 123.315">
  <g id="undraw_develop_app_re_bi4i">
    <path id="Path_339" data-name="Path 339" d="M517.895,139.3h-.729V120.743c0-5.933-5.178-10.743-11.565-10.743H463.267c-6.387,0-11.565,4.81-11.565,10.743v101.83c0,5.933,5.178,10.743,11.565,10.743H505.6c6.387,0,11.565-4.81,11.565-10.743V152.517h.729Z" transform="translate(-409.584 -110)" fill="#3f3d56"/>
    <path id="Path_340" data-name="Path 340" d="M524.539,128.5V231.764c0,4.5-3.924,8.144-8.767,8.147H472.567c-4.845,0-8.773-3.648-8.773-8.148V128.5c0-4.5,3.929-8.147,8.773-8.146h5.241a3.641,3.641,0,0,0,.4,3.62,4.265,4.265,0,0,0,3.457,1.713H506.3a4.265,4.265,0,0,0,3.456-1.714,3.641,3.641,0,0,0,.4-3.62h5.614c4.841,0,8.767,3.645,8.77,8.143Z" transform="translate(-419.316 -118.472)" fill="#e6e6e6"/>
    <path id="Path_127" data-name="Path 127" d="M532.072,281.655H480.533a1.606,1.606,0,0,1-1.659-1.541V179.466a1.606,1.606,0,0,1,1.659-1.541h51.539a1.605,1.605,0,0,1,1.659,1.541V280.114a1.606,1.606,0,0,1-1.659,1.541Z" transform="translate(-431.451 -165.607)" fill="#fff"/>
    <ellipse id="Ellipse_56" data-name="Ellipse 56" cx="14.2" cy="13.19" rx="14.2" ry="13.19" transform="translate(60.457 19.918)" fill="#e6e6e6"/>
    <ellipse id="Ellipse_60" data-name="Ellipse 60" cx="12.277" cy="11.405" rx="12.277" ry="11.405" transform="translate(62.184 21.704)" fill="#fff"/>
    <path id="Path_341" data-name="Path 341" d="M589.918,256.9a6.52,6.52,0,1,0,7,6.5A6.765,6.765,0,0,0,589.918,256.9Zm0,1.951a1.956,1.956,0,1,1-2.1,1.951A2.029,2.029,0,0,1,589.918,258.851Zm0,9.391a5.215,5.215,0,0,1-4.2-2.082c.034-1.3,2.8-2.016,4.2-2.016s4.2,2.016,4.2,2.016-2.516,2.074-4.2,2.083Z" transform="translate(-515.184 -230.26)" fill="#0306ff"/>
    <rect id="Rectangle_26" data-name="Rectangle 26" width="24.566" height="1.715" transform="translate(61.808 50.732)" fill="#e6e6e6"/>
    <rect id="Rectangle_27" data-name="Rectangle 27" width="30.917" height="1.715" transform="translate(58.522 55.188)" fill="#e6e6e6"/>
    <rect id="Rectangle_25-2" data-name="Rectangle 25-2" width="43.553" height="40.457" transform="translate(53.075 67.991)" fill="#e6e6e6"/>
    <rect id="Rectangle_25-3" data-name="Rectangle 25-3" width="41.71" height="38.746" transform="translate(53.768 68.846)" fill="#fff"/>
    <g id="Group_22" data-name="Group 22" transform="translate(62.357 72.587)">
      <rect id="Rectangle_28" data-name="Rectangle 28" width="16.236" height="1.134" fill="#e6e6e6"/>
      <rect id="Rectangle_29" data-name="Rectangle 29" width="25.072" height="1.134" transform="translate(0 3.328)" fill="#0306ff"/>
      <rect id="Rectangle_30" data-name="Rectangle 30" width="20.433" height="1.134" transform="translate(0.261 6.497)" fill="#e6e6e6"/>
      <rect id="Rectangle_31" data-name="Rectangle 31" width="11.929" height="1.134" transform="translate(0 9.975)" fill="#e6e6e6"/>
      <path id="Rectangle_32" data-name="Rectangle 32" d="M0,0H18V1.134H0Z" transform="translate(0 13.372)" fill="#0306ff"/>
      <rect id="Rectangle_38" data-name="Rectangle 38" width="16.236" height="1.134" transform="translate(0 16.79)" fill="#e6e6e6"/>
      <rect id="Rectangle_39" data-name="Rectangle 39" width="25.072" height="1.134" transform="translate(0 20.118)" fill="#0306ff"/>
      <rect id="Rectangle_40" data-name="Rectangle 40" width="20.433" height="1.134" transform="translate(0.261 23.287)" fill="#e6e6e6"/>
      <rect id="Rectangle_41" data-name="Rectangle 41" width="11.929" height="1.134" transform="translate(0 26.765)" fill="#e6e6e6"/>
      <rect id="Rectangle_42" data-name="Rectangle 42" width="18.003" height="1.134" transform="translate(0 30.161)" fill="#e6e6e6"/>
    </g>
    <g id="Group_23" data-name="Group 23" transform="translate(109.761 51.605)">
      <path id="Path_385" data-name="Path 385" d="M908.905,529.9a1.858,1.858,0,0,1-2.432.615,1.594,1.594,0,0,1-.663-2.259l.012-.019a1.788,1.788,0,0,1,.168-.221l-1.5-9.927-.045-.3-.3-2.026-.045-.292.166.007,2.9.123.779.033.1,1.848.552,10.389A1.568,1.568,0,0,1,908.905,529.9Z" transform="translate(-883.423 -493.55)" fill="#ffb8b8"/>
      <path id="Path_386" data-name="Path 386" d="M898.014,481.175l3.689-.314a.692.692,0,0,0,.657-.732L901.676,473a2.746,2.746,0,0,0-3.034-2.357,2.66,2.66,0,0,0-2.537,2.819q.007.074.019.147l1.106,6.989a.712.712,0,0,0,.718.577A.546.546,0,0,0,898.014,481.175Z" transform="translate(-876.982 -456.841)" fill="#0306ff"/>
      <path id="Path_387" data-name="Path 387" d="M869.106,469.206a4.589,4.589,0,0,0-1.89-5.493c-1.391-.884-3.294-1.2-5.344,1.065A23,23,0,0,0,856.7,474.3l8.395,1.269A24.77,24.77,0,0,0,869.106,469.206Z" transform="translate(-845.278 -450.629)" fill="#0306ff"/>
      <path id="Path_388" data-name="Path 388" d="M836.146,739.9h-2.393l-1.138-8.575h3.532Z" transform="translate(-825.895 -670.256)" fill="#ffb8b8"/>
      <path id="Path_389" data-name="Path 389" d="M814.8,777.81h7.522v-2.7h-4.616A2.809,2.809,0,0,0,814.8,777.81Z" transform="translate(-811.562 -706.1)" fill="#2f2e41"/>
      <path id="Path_390" data-name="Path 390" d="M925.731,731.164l-2.272.7-3.979-7.81,3.354-1.03Z" transform="translate(-895.802 -663.458)" fill="#ffb8b8"/>
      <path id="Path_391" data-name="Path 391" d="M920.374,768.526l7.142-2.193-.912-2.563-4.383,1.346A2.662,2.662,0,0,0,920.374,768.526Z" transform="translate(-896.403 -696.816)" fill="#2f2e41"/>
      <ellipse id="Ellipse_65" data-name="Ellipse 65" cx="4.795" cy="4.454" rx="4.795" ry="4.454" transform="translate(13.764 1.928)" fill="#ffb8b8"/>
      <path id="Path_392" data-name="Path 392" d="M817.266,566.338l2.223-13.627a.667.667,0,0,1,.646-.539.678.678,0,0,1,.694.485l3.385,12.987a.886.886,0,0,0,.993.614l9.336-1.394a.884.884,0,0,0,.606-.373.767.767,0,0,0,.1-.67L823.07,526.535a.592.592,0,0,1-.012-.326l.405-1.632a.8.8,0,0,0-.454-.909c-1.658-.786-5.857-2.419-9.025-.63a.83.83,0,0,0-.406.531l-9.51,41.523a.771.771,0,0,0,.153.655.9.9,0,0,0,.628.328l11.471.954c.026,0,.052,0,.078,0a.863.863,0,0,0,.868-.694Z" transform="translate(-802.906 -499.079)" fill="#2f2e41"/>
      <path id="Path_393" data-name="Path 393" d="M904.543,401.477a3.564,3.564,0,0,1-.948-.765,1.078,1.078,0,0,1-.189-1.106,1.3,1.3,0,0,1,1.52-.484,3.623,3.623,0,0,1,1.4.967,3.356,3.356,0,0,1,.9,1.159,1.093,1.093,0,0,1-.341,1.3,1.306,1.306,0,0,1-1.413-.13,3.371,3.371,0,0,1-.883-1.137Z" transform="translate(-882.805 -398.242)" fill="#2f2e41"/>
      <path id="Path_394" data-name="Path 394" d="M917.865,396.532c.027-1.255,1.566-2.155,2.9-1.932a4.018,4.018,0,0,1,2.864,2.438c1.081,2.455.27,5.255-.772,7.725s-2.331,4.976-2.179,7.624a8,8,0,0,0,4.981,6.71,4.755,4.755,0,0,1-4.556-1.006,8.069,8.069,0,0,1-2.569-9.257,33.233,33.233,0,0,1,2.68-4.362,6.209,6.209,0,0,0,1.085-4.8,3.357,3.357,0,0,0-4.091-2.307Z" transform="translate(-894.503 -394.566)" fill="#2f2e41"/>
      <path id="Path_395" data-name="Path 395" d="M869.852,409.117c.418-.656.839-1.518.076-2.091a1.664,1.664,0,0,0-1.181-.29,6.048,6.048,0,0,1-2.633-.155,2.414,2.414,0,0,1-1.432-1.2,2.276,2.276,0,0,1,1.008-2.7,3.615,3.615,0,0,1,3.76-.062,4.125,4.125,0,0,1,3.638.393,5.4,5.4,0,0,1,2.177,2.838,5.108,5.108,0,0,1,.18,3.013,4.616,4.616,0,0,1-2.99,3.061,1.844,1.844,0,0,1-1.714-.236,3.014,3.014,0,0,1-.868-1.181A1.774,1.774,0,0,1,869.852,409.117Z" transform="translate(-851.581 -400.758)" fill="#2f2e41"/>
      <path id="Path_397" data-name="Path 397" d="M802.242,455.939a1.769,1.769,0,0,1,.047.3l8.386,4.494,2.038-1.09,2.173,2.643-3.407,2.256a1.658,1.658,0,0,1-1.874-.042l-8.648-6.337a2.155,2.155,0,0,1-2.258-.535,1.8,1.8,0,0,1-.26-2.151,2.1,2.1,0,0,1,2.074-.987,2,2,0,0,1,1.727,1.453Z" transform="translate(-798.196 -443.606)" fill="#ffb8b8"/>
      <path id="Path_398" data-name="Path 398" d="M862.8,473.4l2.71,3.263a.9.9,0,0,0,.647.316.916.916,0,0,0,.68-.248l3.068-2.96a2.163,2.163,0,0,0,.5-3.172,2.565,2.565,0,0,0-3.414-.465l-.078.056-3.848,2a.824.824,0,0,0-.432.549.772.772,0,0,0,.165.662Z" transform="translate(-850.041 -456.065)" fill="#0306ff"/>
    </g>
    <g id="Group_24" data-name="Group 24" transform="translate(0 51.482)">
      <path id="Path_552" data-name="Path 552" d="M306.718,508.266a2.024,2.024,0,0,0-.275.143l-8.756-3.471-.312-2.143-3.5-.02.207,4.914,11.557,2.84a1.829,1.829,0,0,0,.087.219,2.066,2.066,0,0,0,2.647.9,1.8,1.8,0,0,0,.981-2.454,2.063,2.063,0,0,0-2.636-.925Z" transform="translate(-282.568 -483.028)" fill="#a0616a"/>
      <path id="Path_553" data-name="Path 553" d="M287.355,739.9h2.393l1.139-8.576h-3.532Z" transform="translate(-277.321 -670.133)" fill="#a0616a"/>
      <path id="Path_554" data-name="Path 554" d="M289.346,775.108H284.73v2.7h7.522a2.809,2.809,0,0,0-2.906-2.7h0Z" transform="translate(-275.209 -705.974)" fill="#2f2e41"/>
      <path id="Path_555" data-name="Path 555" d="M239.677,736.628l2.382.218,2.038-8.43-3.515-.321Z" transform="translate(-238.951 -667.487)" fill="#a0616a"/>
      <path id="Path_556" data-name="Path 556" d="M240.837,771.831l-4.593-.42-.285,2.686,7.484.685a2.76,2.76,0,0,0-2.607-2.951Z" transform="translate(-235.959 -702.948)" fill="#2f2e41"/>
      <ellipse id="Ellipse_84" data-name="Ellipse 84" cx="4.795" cy="4.454" rx="4.795" ry="4.454" transform="translate(4.573 1.763)" fill="#a0616a"/>
      <path id="Path_557" data-name="Path 557" d="M249.361,627.549a.858.858,0,0,0,.862-.671c1.238-6.387,5.288-27.275,5.385-27.854a.244.244,0,0,0,0-.04v-1.557a.258.258,0,0,0-.054-.158l-.535-.7a.3.3,0,0,0-.223-.113c-3.05-.133-13.038-.522-13.52.038h0c-.485.562-.312,2.268-.273,2.6l0,.035-4.487,26.658a.828.828,0,0,0,.725.931l2.8.429a.889.889,0,0,0,.981-.561c.867-2.573,3.773-11.229,4.781-14.578a.1.1,0,0,1,.108-.065.093.093,0,0,1,.084.09c-.05,3.193-.172,11.338-.215,14.152l0,.3a.845.845,0,0,0,.8.823l2.7.227Q249.32,627.55,249.361,627.549Z" transform="translate(-236.398 -559.514)" fill="#2f2e41"/>
      <path id="Path_99" data-name="Path 99" d="M258.726,460.517a3.737,3.737,0,0,1,1.625,2.176,19.306,19.306,0,0,1,.953,4.925l.3,5.005,3.759,13.269c-3.258,2.561-5.137,1.979-9.523-.116s-4.887.7-4.887.7l-.877-11.29-1.253-12.337a5.725,5.725,0,0,1,.949-.848,10.278,10.278,0,0,1,8.286-1.632Z" transform="translate(-246.315 -448.095)" fill="#e6e6e6"/>
      <path id="Path_558" data-name="Path 558" d="M252.783,519.355a2.134,2.134,0,0,0-.293.127l-8.658-4.026-.144-2.181-3.571-.229-.191,4.971,11.57,3.554a2,2,0,0,0,1.725,1.456,2.1,2.1,0,0,0,2.076-.984,1.8,1.8,0,0,0-.256-2.152,2.155,2.155,0,0,0-2.257-.538Z" transform="translate(-239.152 -491.437)" fill="#a0616a"/>
      <path id="Path_101" data-name="Path 101" d="M238.818,474.46c-2.13.7-2.505,8.265-2.505,8.265,2.506-1.28,5.513.815,5.513.815s.626-1.979,1.378-4.539a4.215,4.215,0,0,0-1-4.19A3.614,3.614,0,0,0,238.818,474.46Z" transform="translate(-236.244 -459.652)" fill="#e6e6e6"/>
      <path id="Path_102" data-name="Path 102" d="M258.962,401.281c.6-.444,1.412.363,1.412.363l.478-4a18.369,18.369,0,0,0,4.9-.111c1.912-.443,2.211,1.609,2.211,1.609a13.246,13.246,0,0,0,.06-2.5c-.12-1-1.673-2-4.421-2.664s-4.182,2.22-4.182,2.22C257.506,397.093,258.364,401.725,258.962,401.281Z" transform="translate(-253.893 -393.886)" fill="#2f2e41"/>
    </g>
  </g>
</svg>
