<svg xmlns="http://www.w3.org/2000/svg" xmlns:xlink="http://www.w3.org/1999/xlink" width="121" height="132" viewBox="0 0 121 132">
  <defs>
    <clipPath id="clip-path">
      <rect id="Rectangle_337" data-name="Rectangle 337" width="121" height="132" fill="#4db8ef" stroke="#4db8ef" stroke-width="1"/>
    </clipPath>
  </defs>
  <g id="Mask_Group_29" data-name="Mask Group 29" clip-path="url(#clip-path)">
    <g id="noun_Certificate_4219255" transform="translate(-0.319 1.427)">
      <g id="Component_6_1" data-name="Component 6 – 1">
        <path id="Path_14" data-name="Path 14" d="M46.058,24.765a5.18,5.18,0,1,0,5.2,5.2A5.186,5.186,0,0,0,46.058,24.765Zm0,6.89a1.693,1.693,0,0,1-1.691-1.692,1.712,1.712,0,1,1,1.691,1.692Z" transform="translate(57.586 37.371)" fill="#4db8ef" stroke="#4db8ef" stroke-width="1"/>
        <path id="Path_15" data-name="Path 15" d="M46.058,32.612a5.18,5.18,0,1,0,5.2,5.2A5.186,5.186,0,0,0,46.058,32.612Zm0,6.89a1.693,1.693,0,0,1-1.691-1.691A1.712,1.712,0,1,1,46.058,39.5Z" transform="translate(57.586 51.673)" fill="#4db8ef" stroke="#4db8ef" stroke-width="1"/>
        <path id="Path_16" data-name="Path 16" d="M111.4,2.75H51.886c-.048,0-.088.025-.135.028a1.9,1.9,0,0,0-.523.11,1.8,1.8,0,0,0-.218.1,1.968,1.968,0,0,0-.411.289,1.979,1.979,0,0,0-.153.135c-.019.021-.044.033-.062.054L31.6,25.945a2.08,2.08,0,0,0-.323.546c-.009.02-.01.043-.018.064a2.139,2.139,0,0,0-.129.669c0,.031-.017.057-.017.089V51.9C16.429,53,4.793,65.749,4.793,81.308a29.96,29.96,0,0,0,11.729,23.924v27.221a2.1,2.1,0,0,0,.986,1.8,1.926,1.926,0,0,0,1.983.019L33.1,126.29l13.609,7.978a1.925,1.925,0,0,0,1.983-.019,2.1,2.1,0,0,0,.986-1.8V115.56H111.4a8.991,8.991,0,0,0,8.781-9.166V11.916A8.991,8.991,0,0,0,111.4,2.75ZM49.893,10.382v14.85H37.486ZM8.78,81.308c0-13.978,10.93-25.349,24.362-25.349,13.39,0,24.284,11.371,24.284,25.349A25.7,25.7,0,0,1,46.581,102.5a23.85,23.85,0,0,1-26.957-.016A25.739,25.739,0,0,1,8.78,81.308Zm11.729,26.48a27.338,27.338,0,0,0,10.6,3.034v11.861l-10.6,6.215ZM45.693,128.9l-10.6-6.213v-11.86a27.156,27.156,0,0,0,10.6-3.012V128.9Zm70.5-22.5a4.91,4.91,0,0,1-4.794,5H49.68v-6.144A29.926,29.926,0,0,0,61.412,81.308c0-15.583-11.638-28.35-26.313-29.407V29.394H51.886a2.039,2.039,0,0,0,1.993-2.081V6.912H111.4a4.91,4.91,0,0,1,4.794,5v94.478Z" transform="translate(-4.793 -2.75)" fill="#4db8ef" stroke="#4db8ef" stroke-width="1"/>
        <path id="Path_17" data-name="Path 17" d="M46.058,9.069a5.181,5.181,0,1,0,5.2,5.2A5.186,5.186,0,0,0,46.058,9.069Zm0,6.892a1.694,1.694,0,0,1-1.691-1.694,1.712,1.712,0,1,1,1.691,1.694Z" transform="translate(57.586 5.544)" fill="#4db8ef" stroke="#4db8ef" stroke-width="1"/>
        <path id="Path_18" data-name="Path 18" d="M46.058,16.917a5.18,5.18,0,1,0,5.2,5.2A5.186,5.186,0,0,0,46.058,16.917Zm0,6.89a1.693,1.693,0,0,1-1.691-1.691,1.712,1.712,0,1,1,1.691,1.691Z" transform="translate(57.586 23.069)" fill="#4db8ef" stroke="#4db8ef" stroke-width="1"/>
        <path id="Path_19" data-name="Path 19" d="M55.86,20.355H26.817a1.734,1.734,0,1,0,0,3.469H55.86a1.734,1.734,0,0,0,0-3.469Z" transform="translate(32.199 28.752)" fill="#4db8ef" stroke="#4db8ef" stroke-width="1"/>
        <path id="Path_20" data-name="Path 20" d="M51.45,24.749H30.177a1.734,1.734,0,1,0,0,3.469H51.45a1.734,1.734,0,1,0,0-3.469Z" transform="translate(37.084 36.616)" fill="#4db8ef" stroke="#4db8ef" stroke-width="1"/>
        <path id="Path_21" data-name="Path 21" d="M51.45,29.527H30.177a1.734,1.734,0,1,0,0,3.469H51.45a1.734,1.734,0,1,0,0-3.469Z" transform="translate(37.084 45.166)" fill="#4db8ef" stroke="#4db8ef" stroke-width="1"/>
        <path id="Path_22" data-name="Path 22" d="M51.45,34.3H30.177a1.734,1.734,0,1,0,0,3.469H51.45a1.734,1.734,0,1,0,0-3.469Z" transform="translate(37.084 53.715)" fill="#4db8ef" stroke="#4db8ef" stroke-width="1"/>
        <path id="Path_23" data-name="Path 23" d="M48.8,9.069H32.193A1.735,1.735,0,0,0,30.459,10.8V25.937a1.735,1.735,0,0,0,1.734,1.734H48.8a1.735,1.735,0,0,0,1.734-1.734V10.8A1.735,1.735,0,0,0,48.8,9.069ZM47.069,24.2H33.928V12.538H47.069Z" transform="translate(39.972 5.544)" fill="#4db8ef" stroke="#4db8ef" stroke-width="1"/>
        <path id="Path_24" data-name="Path 24" d="M14.119,49.445a1.734,1.734,0,0,0,2.516,1.829l6.518-3.421,6.536,3.421a1.722,1.722,0,0,0,.8.2,1.734,1.734,0,0,0,1.71-2.028l-1.244-7.261,5.273-5.138a1.734,1.734,0,0,0-.96-2.958l-7.29-1.07-3.275-6.6a1.733,1.733,0,0,0-1.554-.964h0a1.735,1.735,0,0,0-1.554.967l-3.257,6.6-7.29,1.068a1.734,1.734,0,0,0-.96,2.958l5.273,5.138Zm.906-12.435,4.718-.691a1.741,1.741,0,0,0,1.305-.949L23.157,31.1l2.121,4.275a1.735,1.735,0,0,0,1.3.946l4.715.691-3.412,3.327a1.733,1.733,0,0,0-.5,1.536l.806,4.7L23.956,44.36a1.73,1.73,0,0,0-1.61,0l-4.216,2.213.806-4.7a1.733,1.733,0,0,0-.5-1.536Z" transform="translate(1.471 40.792)" fill="#4db8ef" stroke="#4db8ef" stroke-width="1"/>
      </g>
    </g>
  </g>
</svg>
