<svg xmlns="http://www.w3.org/2000/svg" xmlns:xlink="http://www.w3.org/1999/xlink" width="54" height="53" viewBox="0 0 54 53">
  <defs>
    <clipPath id="clip-path">
      <rect id="Rectangle_422" data-name="Rectangle 422" width="54" height="53" fill="#fff" opacity="0.99"/>
    </clipPath>
  </defs>
  <g id="Technical_SEO_Link_" data-name="Technical SEO + Link " clip-path="url(#clip-path)">
    <g id="noun-seo-link-building-2373749" transform="translate(7.084 -0.434)">
      <path id="Path_396" data-name="Path 396" d="M97.262,4.81,100.806,0l1.775,2.409L99.037,7.215a4.113,4.113,0,0,0-.732,2.421,4.313,4.313,0,0,0,.493,2.044L97.014,14.1A8.4,8.4,0,0,1,95.8,9.636,8.22,8.22,0,0,1,97.262,4.81ZM75.32,39.414l-3.54,4.81L70,41.816l3.543-4.81A4.456,4.456,0,0,1,77.1,35.014a4.337,4.337,0,0,1,3.289,1.655L78.609,39.09a2.121,2.121,0,0,0-1.506-.669,2.225,2.225,0,0,0-1.783.994ZM77.435,51.9l3.54-4.81a4.112,4.112,0,0,0,.735-2.417,4.269,4.269,0,0,0-.5-2.044L83,40.209a8.389,8.389,0,0,1,1.222,4.465A8.21,8.21,0,0,1,82.75,49.5l-3.54,4.81L77.435,51.9Zm7.8-20.685a1.038,1.038,0,0,1,1.775,0,2.158,2.158,0,0,1,0,2.409l-7.624,10.35a1.036,1.036,0,0,1-1.771,0,2.158,2.158,0,0,1,0-2.409Zm-3.669-5.1L89.241,15.7a4.454,4.454,0,0,1,3.555-2,4.338,4.338,0,0,1,3.289,1.659L94.3,17.785a2.106,2.106,0,0,0-1.506-.673,2.231,2.231,0,0,0-1.781,1L83.344,28.524a4.112,4.112,0,0,0-.735,2.417,4.269,4.269,0,0,0,.5,2.044l-1.783,2.421A8.389,8.389,0,0,1,80.1,30.942a8.21,8.21,0,0,1,1.47-4.827ZM98.694,18.9a8.4,8.4,0,0,1,1.219,4.465,8.22,8.22,0,0,1-1.467,4.827L90.774,38.611A4.464,4.464,0,0,1,87.216,40.6a4.337,4.337,0,0,1-3.289-1.655l1.783-2.421a2.122,2.122,0,0,0,1.506.669A2.225,2.225,0,0,0,89,36.2l7.672-10.415a4.137,4.137,0,0,0,.735-2.421,4.352,4.352,0,0,0-.5-2.044L98.694,18.9Zm-3.92,4.19a1.038,1.038,0,0,1-1.775,0,2.158,2.158,0,0,1,0-2.409l7.624-10.346a1.038,1.038,0,0,1,1.775,0,2.151,2.151,0,0,1,0,2.4ZM110.01,12.5,106.467,17.3a4.454,4.454,0,0,1-3.555,2,4.338,4.338,0,0,1-3.289-1.659l1.783-2.421a2.106,2.106,0,0,0,1.506.673,2.23,2.23,0,0,0,1.781-1l3.543-4.806L110.01,12.5ZM70.722,10.427c0,5.212,3.113,9.434,6.949,9.434s6.952-4.222,6.952-9.434S81.51.994,77.671.994,70.722,5.216,70.722,10.427Zm5.721-1.671V4.064H78.9V8.756h3.459V12.1H78.9v4.692H76.443V12.1H72.984V8.756Z" transform="translate(-70.005)" fill="#fff"/>
      <g id="Group_303" data-name="Group 303" transform="translate(0 54.316)">
        <path id="Path_397" data-name="Path 397" d="M.017-.155h0Z" transform="translate(-0.016 0.156)" fill="#fff"/>
      </g>
      <g id="Group_304" data-name="Group 304" transform="translate(0.002 54.317)">
        <path id="Path_398" data-name="Path 398" d="M.016-.125h0Z" transform="translate(-0.016 0.125)" fill="#fff"/>
      </g>
      <g id="Group_305" data-name="Group 305" transform="translate(0.003 54.317)">
        <path id="Path_399" data-name="Path 399" d="M.017-.124h0Zm0,0h0Z" transform="translate(-0.016 0.125)" fill="#fff"/>
      </g>
      <g id="Group_306" data-name="Group 306" transform="translate(0.004 54.317)">
        <path id="Path_400" data-name="Path 400" d="M.016-.124h0Zm0,0h0Z" transform="translate(-0.016 0.125)" fill="#fff"/>
      </g>
      <g id="Group_307" data-name="Group 307" transform="translate(0.006 54.317)">
        <path id="Path_401" data-name="Path 401" d="M0-.141H0Z" transform="translate(0 0.141)" fill="#fff"/>
      </g>
      <g id="Group_308" data-name="Group 308" transform="translate(0.007 54.317)">
        <path id="Path_402" data-name="Path 402" d="M.017-.124h0Zm0,0h0Z" transform="translate(-0.016 0.125)" fill="#fff"/>
      </g>
      <g id="Group_309" data-name="Group 309" transform="translate(0.008 54.316)">
        <path id="Path_403" data-name="Path 403" d="M.016-.156h0v0h0Zm0,0h0Z" transform="translate(-0.016 0.156)" fill="#fff"/>
      </g>
      <g id="Group_310" data-name="Group 310" transform="translate(0.011 54.316)">
        <path id="Path_404" data-name="Path 404" d="M.016-.155h0Zm0,0h0v0h0Z" transform="translate(-0.016 0.156)" fill="#fff"/>
      </g>
      <g id="Group_311" data-name="Group 311" transform="translate(0.012 54.317)">
        <path id="Path_405" data-name="Path 405" d="M0-.109H0Z" transform="translate(0 0.109)" fill="#fff"/>
      </g>
      <g id="Group_312" data-name="Group 312" transform="translate(0.015 54.317)">
        <path id="Path_406" data-name="Path 406" d="M.016-.124h0v0h0Zm0,0h0Z" transform="translate(-0.016 0.125)" fill="#fff"/>
      </g>
      <g id="Group_313" data-name="Group 313" transform="translate(0.016 54.317)">
        <path id="Path_407" data-name="Path 407" d="M.016-.125h0Zm0,0h0Z" transform="translate(-0.016 0.125)" fill="#fff"/>
      </g>
      <g id="Group_314" data-name="Group 314" transform="translate(0.018 54.317)">
        <path id="Path_408" data-name="Path 408" d="M.016-.124h0v0h0Zm0,0h0Z" transform="translate(-0.016 0.125)" fill="#fff"/>
      </g>
      <g id="Group_315" data-name="Group 315" transform="translate(0.019 54.317)">
        <path id="Path_409" data-name="Path 409" d="M.017-.125h0Z" transform="translate(-0.016 0.125)" fill="#fff"/>
      </g>
      <g id="Group_316" data-name="Group 316" transform="translate(0.021 54.317)">
        <path id="Path_410" data-name="Path 410" d="M.016-.125h0Zm0,0h0Z" transform="translate(-0.016 0.125)" fill="#fff"/>
      </g>
      <g id="Group_317" data-name="Group 317" transform="translate(0.022 54.317)">
        <path id="Path_411" data-name="Path 411" d="M.016-.125h0Z" transform="translate(-0.016 0.125)" fill="#fff"/>
      </g>
      <g id="Group_318" data-name="Group 318" transform="translate(0.023 54.317)">
        <path id="Path_412" data-name="Path 412" d="M.017-.124h0Z" transform="translate(-0.016 0.125)" fill="#fff"/>
      </g>
      <g id="Group_319" data-name="Group 319" transform="translate(0.025 54.317)">
        <path id="Path_413" data-name="Path 413" d="M.016-.124h0Zm0,0h0Z" transform="translate(-0.016 0.125)" fill="#fff"/>
      </g>
      <g id="Group_320" data-name="Group 320" transform="translate(0.026 54.317)">
        <path id="Path_414" data-name="Path 414" d="M.016-.125h0Z" transform="translate(-0.016 0.125)" fill="#fff"/>
      </g>
      <g id="Group_321" data-name="Group 321" transform="translate(0.027 54.317)">
        <path id="Path_415" data-name="Path 415" d="M0-.141H0Z" transform="translate(0 0.141)" fill="#fff"/>
      </g>
      <g id="Group_322" data-name="Group 322" transform="translate(0.028 54.317)">
        <path id="Path_416" data-name="Path 416" d="M.017-.125h0Z" transform="translate(-0.016 0.125)" fill="#fff"/>
      </g>
      <g id="Group_323" data-name="Group 323" transform="translate(0 54.319)">
        <path id="Path_417" data-name="Path 417" d="M0-.156H0Z" transform="translate(0 0.156)" fill="#fff"/>
      </g>
      <g id="Group_324" data-name="Group 324" transform="translate(0.001 54.319)">
        <path id="Path_418" data-name="Path 418" d="M.016-.125h0Z" transform="translate(-0.016 0.125)" fill="#fff"/>
      </g>
      <g id="Group_325" data-name="Group 325" transform="translate(0.002 54.319)">
        <path id="Path_419" data-name="Path 419" d="M.016-.125h0Zm0,0h0Z" transform="translate(-0.016 0.125)" fill="#fff"/>
      </g>
      <g id="Group_326" data-name="Group 326" transform="translate(0.004 54.319)">
        <path id="Path_420" data-name="Path 420" d="M.017-.125h0Z" transform="translate(-0.016 0.125)" fill="#fff"/>
      </g>
      <g id="Group_327" data-name="Group 327" transform="translate(0.007 54.319)">
        <path id="Path_421" data-name="Path 421" d="M0-.141H0Z" transform="translate(0 0.141)" fill="#fff"/>
      </g>
      <g id="Group_328" data-name="Group 328" transform="translate(0.008 54.319)">
        <path id="Path_422" data-name="Path 422" d="M.017-.155h0v0h0Z" transform="translate(-0.016 0.156)" fill="#fff"/>
      </g>
      <g id="Group_329" data-name="Group 329" transform="translate(0.01 54.319)">
        <path id="Path_423" data-name="Path 423" d="M.017-.124h0Zm0,0h0Z" transform="translate(-0.016 0.125)" fill="#fff"/>
      </g>
      <g id="Group_330" data-name="Group 330" transform="translate(0.012 54.319)">
        <path id="Path_424" data-name="Path 424" d="M.016-.156h0v0h0Z" transform="translate(-0.016 0.156)" fill="#fff"/>
      </g>
      <g id="Group_331" data-name="Group 331" transform="translate(0.014 54.319)">
        <path id="Path_425" data-name="Path 425" d="M.016-.125h0Zm0,0h0Z" transform="translate(-0.016 0.125)" fill="#fff"/>
      </g>
      <g id="Group_332" data-name="Group 332" transform="translate(0.015 54.319)">
        <path id="Path_426" data-name="Path 426" d="M.016-.109h0Z" transform="translate(-0.016 0.109)" fill="#fff"/>
      </g>
      <g id="Group_333" data-name="Group 333" transform="translate(0.017 54.319)">
        <path id="Path_427" data-name="Path 427" d="M.017-.124h0Z" transform="translate(-0.016 0.125)" fill="#fff"/>
      </g>
      <g id="Group_334" data-name="Group 334" transform="translate(0.019 54.319)">
        <path id="Path_428" data-name="Path 428" d="M.016-.156h0Zm0,0h0Z" transform="translate(-0.016 0.156)" fill="#fff"/>
      </g>
      <g id="Group_335" data-name="Group 335" transform="translate(0.021 54.319)">
        <path id="Path_429" data-name="Path 429" d="M.016-.125h0Z" transform="translate(-0.016 0.125)" fill="#fff"/>
      </g>
      <g id="Group_336" data-name="Group 336" transform="translate(0.022 54.319)">
        <path id="Path_430" data-name="Path 430" d="M.016-.125h0Zm0,0h0Z" transform="translate(-0.016 0.125)" fill="#fff"/>
      </g>
      <g id="Group_337" data-name="Group 337" transform="translate(0.023 54.319)">
        <path id="Path_431" data-name="Path 431" d="M0-.156H0Zm0,0H0Z" transform="translate(0 0.156)" fill="#fff"/>
      </g>
      <g id="Group_338" data-name="Group 338" transform="translate(0.024 54.319)">
        <path id="Path_432" data-name="Path 432" d="M.017-.124h0Zm0,0h0Z" transform="translate(-0.016 0.125)" fill="#fff"/>
      </g>
      <g id="Group_339" data-name="Group 339" transform="translate(0.026 54.319)">
        <path id="Path_433" data-name="Path 433" d="M.017-.125h0Z" transform="translate(-0.016 0.125)" fill="#fff"/>
      </g>
      <g id="Group_340" data-name="Group 340" transform="translate(0.027 54.319)">
        <path id="Path_434" data-name="Path 434" d="M0-.141H0Z" transform="translate(0 0.141)" fill="#fff"/>
      </g>
    </g>
  </g>
</svg>
