<svg xmlns="http://www.w3.org/2000/svg" xmlns:xlink="http://www.w3.org/1999/xlink" width="56" height="56" viewBox="0 0 56 56">
  <defs>
    <clipPath id="clip-path">
      <rect id="Rectangle_414" data-name="Rectangle 414" width="56" height="56" fill="#4db8ef"/>
    </clipPath>
  </defs>
  <g id="Mask_Group_53" data-name="Mask Group 53" clip-path="url(#clip-path)">
    <g id="Group_528" data-name="Group 528" transform="translate(0.296 2.167)">
      <path id="Path_656" data-name="Path 656" d="M91.1,70.117H72.067v-32.5h44.985v4.162a1.046,1.046,0,1,0,2.085,0V25.9a1.092,1.092,0,0,0-1.042-1.139H71.032A1.1,1.1,0,0,0,69.99,25.9v45.36a1.092,1.092,0,0,0,1.042,1.139H91.1a1.143,1.143,0,0,0,0-2.277ZM72.067,27.034h44.985v8.314H72.067Z" transform="translate(-69.99 -24.757)" fill="#4db8ef"/>
      <path id="Path_657" data-name="Path 657" d="M124.534,74.461h-3.779a1.139,1.139,0,1,0,0,2.277h3.779a1.139,1.139,0,0,0,0-2.277Z" transform="translate(-114.323 -69.16)" fill="#4db8ef"/>
      <path id="Path_658" data-name="Path 658" d="M202.494,74.461h-3.779a1.139,1.139,0,0,0,0,2.277h3.779a1.139,1.139,0,1,0,0-2.277Z" transform="translate(-185.12 -69.16)" fill="#4db8ef"/>
      <path id="Path_659" data-name="Path 659" d="M396.583,294.18a7.558,7.558,0,1,0,7.558,7.558A7.562,7.562,0,0,0,396.583,294.18Zm0,12.849a5.291,5.291,0,1,1,5.291-5.291A5.293,5.293,0,0,1,396.583,307.029Z" transform="translate(-359.922 -265.822)" fill="#4db8ef"/>
      <path id="Path_660" data-name="Path 660" d="M318.7,202.795l-4.32-.653a14.538,14.538,0,0,0-.812-1.969l2.6-3.527a1.132,1.132,0,0,0-.112-1.512l-3.6-3.6a1.132,1.132,0,0,0-1.512-.112l-3.518,2.594a14.745,14.745,0,0,0-1.96-.774l-.653-4.311a1.128,1.128,0,0,0-1.12-.98H298.6a1.134,1.134,0,0,0-1.12.971l-.653,4.32a14.157,14.157,0,0,0-1.987.821l-3.518-2.594a1.132,1.132,0,0,0-1.512.112l-3.6,3.6a1.132,1.132,0,0,0-.112,1.512l2.6,3.527a13.887,13.887,0,0,0-.784,1.922l-4.339.653a1.133,1.133,0,0,0-.952,1.12v5.095a1.134,1.134,0,0,0,.971,1.12l4.358.653a14.1,14.1,0,0,0,.812,1.932l-2.622,3.555a1.132,1.132,0,0,0,.112,1.512l3.6,3.6a1.132,1.132,0,0,0,1.512.112l3.565-2.632a13.876,13.876,0,0,0,1.922.793l.662,4.386a1.118,1.118,0,0,0,1.082.933H303.7a1.134,1.134,0,0,0,1.12-.971l.662-4.386a14.341,14.341,0,0,0,1.922-.793l3.565,2.632a1.132,1.132,0,0,0,1.512-.112l3.6-3.6a1.132,1.132,0,0,0,.112-1.512l-2.622-3.555a14.2,14.2,0,0,0,.812-1.9l4.358-.653a1.14,1.14,0,0,0,.933-1.12V203.9a1.131,1.131,0,0,0-.971-1.11Zm-1.3,5.235-4.106.616a1.134,1.134,0,0,0-.924.821,11.446,11.446,0,0,1-1.157,2.771,1.15,1.15,0,0,0,.065,1.241l2.473,3.35-2.221,2.221-3.368-2.482a1.132,1.132,0,0,0-1.241-.065,11.353,11.353,0,0,1-2.762,1.138,1.133,1.133,0,0,0-.821.924l-.625,4.134h-3.145l-.625-4.134a1.134,1.134,0,0,0-.821-.924,11.887,11.887,0,0,1-2.762-1.139,1.15,1.15,0,0,0-1.241.065l-3.368,2.482-2.221-2.221,2.482-3.35a1.132,1.132,0,0,0,.065-1.241,11.471,11.471,0,0,1-1.157-2.771,1.133,1.133,0,0,0-.924-.821l-4.106-.616v-3.145l4.087-.616a1.142,1.142,0,0,0,.933-.831,11.874,11.874,0,0,1,1.157-2.809,1.15,1.15,0,0,0-.065-1.241l-2.445-3.322,2.221-2.221,3.313,2.445a1.132,1.132,0,0,0,1.241.065,11.829,11.829,0,0,1,2.818-1.176,1.13,1.13,0,0,0,.831-.933l.6-4.05h3.145l.616,4.059a1.142,1.142,0,0,0,.831.933,11.48,11.48,0,0,1,2.818,1.176,1.131,1.131,0,0,0,1.241-.065l3.313-2.445,2.221,2.221L311.32,199.4a1.132,1.132,0,0,0-.065,1.241,11.582,11.582,0,0,1,1.157,2.809,1.131,1.131,0,0,0,.933.831l4.087.616Z" transform="translate(-264.487 -170.546)" fill="#4db8ef"/>
    </g>
  </g>
</svg>
