<svg xmlns="http://www.w3.org/2000/svg" xmlns:xlink="http://www.w3.org/1999/xlink" width="54" height="55" viewBox="0 0 54 55">
  <defs>
    <clipPath id="clip-path">
      <rect id="Rectangle_418" data-name="Rectangle 418" width="54" height="55" fill="#4db8ef"/>
    </clipPath>
  </defs>
  <g id="Mask_Group_55" data-name="Mask Group 55" clip-path="url(#clip-path)">
    <g id="Group_533" data-name="Group 533" transform="translate(6.047 0.613)">
      <path id="Path_668" data-name="Path 668" d="M188.957,17.5H151.068a2.335,2.335,0,0,0-1.636.666,2.253,2.253,0,0,0-.677,1.607v50a2.3,2.3,0,0,0,.707,1.61,2.382,2.382,0,0,0,1.652.663h28.174a.94.94,0,0,0,.352-.073.86.86,0,0,0,.305-.191l11.1-10.909a1.193,1.193,0,0,0,.176-.263v-.082a1.165,1.165,0,0,0,.055-.246V19.816a2.3,2.3,0,0,0-.678-1.627,2.382,2.382,0,0,0-1.644-.692ZM150.6,69.724V19.771a.458.458,0,0,1,.463-.455H189a.5.5,0,0,1,.509.5v39.5h-8.836a2.335,2.335,0,0,0-1.636.666,2.253,2.253,0,0,0-.677,1.607v8.636H151.113a.5.5,0,0,1-.509-.5Zm29.608-.782V61.588a.458.458,0,0,1,.463-.455h7.485Z" transform="translate(-148.755 -17.498)" fill="#4db8ef"/>
      <path id="Path_669" data-name="Path 669" d="M337.679,173.01a7.494,7.494,0,1,0-5.3-2.193,7.5,7.5,0,0,0,5.3,2.193Zm-4-11.483a5.644,5.644,0,1,1-1.656,3.988,5.551,5.551,0,0,1,1.656-3.988Z" transform="translate(-310.996 -143.518)" fill="#4db8ef"/>
      <path id="Path_670" data-name="Path 670" d="M201.543,147.318l5.366-5.21a11.512,11.512,0,0,0,10.762,2.118,11.062,11.062,0,0,0,7.495-7.793,10.708,10.708,0,0,0-2.914-10.279,11.475,11.475,0,0,0-10.546-2.973,11.135,11.135,0,0,0-8.131,7.165,10.673,10.673,0,0,0,2.029,10.477l-5.366,5.21-.713-.638a.945.945,0,0,0-1.3,0l-5.311,5.156h0a2.64,2.64,0,0,0,0,3.844,2.834,2.834,0,0,0,3.96,0l5.311-5.156h0a.88.88,0,0,0,0-1.267Zm5.986-19.967a9.6,9.6,0,0,1,13.294,0,8.939,8.939,0,0,1,0,12.906,9.6,9.6,0,0,1-13.294,0,8.887,8.887,0,0,1,0-12.908ZM195.6,153.13a.975.975,0,0,1-1.351,0,.908.908,0,0,1,0-1.311l4.626-4.491,1.351,1.311Z" transform="translate(-187.499 -111.755)" fill="#4db8ef"/>
    </g>
  </g>
</svg>
