<svg xmlns="http://www.w3.org/2000/svg" xmlns:xlink="http://www.w3.org/1999/xlink" width="121" height="132" viewBox="0 0 121 132">
  <defs>
    <clipPath id="clip-path">
      <rect id="Rectangle_453" data-name="Rectangle 453" width="121" height="132" transform="translate(1447 -10324)" fill="#4db8ef" stroke="#4db8ef" stroke-width="1"/>
    </clipPath>
  </defs>
  <g id="Mask_Group_60" data-name="Mask Group 60" transform="translate(-1447 10324)" clip-path="url(#clip-path)">
    <path id="Path_702" data-name="Path 702" d="M247.947,112.42,219.21,100.478a1.717,1.717,0,0,0-.217-.043l-.014,0c-.045-.012-.079-.034-.126-.042-.032-.006-.056-.025-.088-.029s-.074.012-.111.009a1.68,1.68,0,0,0-.363.03,1.863,1.863,0,0,0-.251.05,1.763,1.763,0,0,0-.268.112c-.025.013-.054,0-.078.013l-.109.063v-8.41a33.842,33.842,0,0,0,4.693-10.306,12.6,12.6,0,0,0,6.175-7.6,13.628,13.628,0,0,0-1.36-9.466l-.021-4.312c.038-1.083.029-2.092-.017-3.033A20.433,20.433,0,0,0,216.136,38.2c-18.3-9-29.144,2.25-31.8,5.528a8.213,8.213,0,0,0-5.608,1.984c-3.188,2.667-4.7,7.657-4.481,14.774l-.017,4.372a13.628,13.628,0,0,0-1.363,9.466,12.6,12.6,0,0,0,6.162,7.592,33.006,33.006,0,0,0,4.983,10.927v7.62c-.022-.008-.046-.006-.069-.014a1.552,1.552,0,0,0-.263-.053,1.593,1.593,0,0,0-.374-.029c-.036,0-.069-.013-.106-.008s-.059.025-.091.03-.075.028-.118.04l-.012,0a1.522,1.522,0,0,0-.225.045l-28.573,11.884a11.265,11.265,0,0,0-8.075,10.855v41.842a1.722,1.722,0,0,0,1.719,1.721h106.3a1.724,1.724,0,0,0,1.721-1.721V123.217a11.333,11.333,0,0,0-7.91-10.8Zm-28.229-5.882,9.922,13.419-11.721,4.622a1.7,1.7,0,0,0-.516.372ZM182.239,80.49a1.727,1.727,0,0,0-.864-1.2c-2.819-1.544-4.557-3.5-5.165-5.808-.971-3.68,1.182-7.224,1.2-7.26a1.715,1.715,0,0,0,.261-.9l.019-4.881c-.179-5.938.929-10.106,3.2-12.054a5.067,5.067,0,0,1,3.3-1.232,3.414,3.414,0,0,1,.592.044,1.717,1.717,0,0,0,1.788-.737c.388-.584,9.7-14.2,28.073-5.163a17.206,17.206,0,0,1,8.966,16.153.967.967,0,0,0,0,.156c.042.875.05,1.818.017,2.892l.021,4.824a1.8,1.8,0,0,0,.261.9,10.419,10.419,0,0,1,1.2,7.26c-.613,2.309-2.351,4.263-5.167,5.808a1.715,1.715,0,0,0-.86,1.178c-.034.177-3.623,17.723-18.6,17.394a15.927,15.927,0,0,1-13.376-6.509,1.694,1.694,0,0,0-.227-.283,27.788,27.788,0,0,1-4.649-10.582Zm5.218,21.915V96.629a18.46,18.46,0,0,0,12.575,4.677c.151,0,.3,0,.457,0a18.92,18.92,0,0,0,13.653-5.07v6.389L200.986,110.2Zm11.34,10.5-10.461,14.448-2.778-22.074Zm17.617-7.628-2.775,22.073-10.463-14.446Zm-31.849,19.668a1.7,1.7,0,0,0-.514-.371l-11.723-4.622,9.92-13.417Zm-35.014,38.392V123.218a8.023,8.023,0,0,1,5.791-7.623l23-9.56-10.112,13.673a1.722,1.722,0,0,0,.751,2.623l11.3,4.458-6.412,6.116a1.709,1.709,0,0,0-.525,1.427l3.1,29.007Zm30.36,0-3.053-28.533,7.746-7.388a1.608,1.608,0,0,0,.225-.359l4.564,36.279Zm9.051-30.993,4.368-6.032,3.383,3.509L191.638,153.6Zm4.112,30.993,7.193-33.693a1.712,1.712,0,0,0-.445-1.553l-4.445-4.606,5.608-7.744,5.606,7.741-4.445,4.608a1.716,1.716,0,0,0-.443,1.553l7.193,33.693Zm12.182-33.515,3.383-3.509,4.369,6.034-2.673,21.256Zm16.806,33.515h-9.488l3.919-31.173a.033.033,0,0,0,0-.011l.64-5.094a1.675,1.675,0,0,0,.224.357l7.749,7.388Zm30.352,0h-26.9l3.1-29.007a1.706,1.706,0,0,0-.52-1.427l-6.414-6.116,11.3-4.458a1.716,1.716,0,0,0,.751-2.623l-10.116-13.677,23.172,9.622a7.949,7.949,0,0,1,5.625,7.565v40.123Z" transform="translate(1306.517 -10358.78)" fill="#4db8ef" stroke="#4db8ef" stroke-width="1"/>
  </g>
</svg>
