<svg id="Group_454" data-name="Group 454" xmlns="http://www.w3.org/2000/svg" width="83.888" height="83.302" viewBox="0 0 83.888 83.302">
  <path id="Path_597" data-name="Path 597" d="M244.747,224.128a35.158,35.158,0,1,1,24.817-10.294,35.121,35.121,0,0,1-24.817,10.294Zm0-67.68A32.6,32.6,0,1,0,267.763,166a32.562,32.562,0,0,0-23.016-9.552Z" transform="translate(-209.624 -140.826)" fill="#00a8ff"/>
  <path id="Path_598" data-name="Path 598" d="M278.978,246.721a23.5,23.5,0,1,1,16.586-6.879,23.476,23.476,0,0,1-16.586,6.879Zm0-44.393a20.94,20.94,0,1,0,14.787,6.138A20.916,20.916,0,0,0,278.978,202.328Z" transform="translate(-243.855 -175.061)" fill="#00a8ff"/>
  <path id="Path_599" data-name="Path 599" d="M314.665,270.263a11.35,11.35,0,1,1,8.008-3.321,11.338,11.338,0,0,1-8.008,3.321Zm0-20.117a8.792,8.792,0,1,0,6.207,2.58,8.78,8.78,0,0,0-6.207-2.58Z" transform="translate(-279.542 -210.743)" fill="#00a8ff"/>
  <path id="Path_600" data-name="Path 600" d="M450.453,128.514a1.242,1.242,0,0,1-.39-.062l-8.935-2.862h0a1.281,1.281,0,0,1-.825-.833l-2.862-8.935h0a1.288,1.288,0,0,1,.315-1.3L449.48,102.8h0a1.279,1.279,0,0,1,2.123.515l2.661,8.309,8.309,2.661a1.279,1.279,0,0,1,.515,2.123l-11.723,11.729a1.278,1.278,0,0,1-.913.376Zm-7.916-5.159,7.565,2.422,9.69-9.687-6.939-2.223h0a1.281,1.281,0,0,1-.83-.827L449.8,106.1l-9.69,9.687Z" transform="translate(-379.576 -102.428)" fill="#00a8ff"/>
  <path id="Path_601" data-name="Path 601" d="M346.553,178.167a1.279,1.279,0,0,1-.9-2.183l37.962-37.964a1.28,1.28,0,0,1,1.808,1.811l-37.964,37.962a1.273,1.273,0,0,1-.9.373Z" transform="translate(-310.846 -128.708)" fill="#00a8ff"/>
</svg>
