<svg xmlns="http://www.w3.org/2000/svg" xmlns:xlink="http://www.w3.org/1999/xlink" width="113" height="125" viewBox="0 0 113 125">
  <defs>
    <clipPath id="clip-path">
      <rect id="Rectangle_339" data-name="Rectangle 339" width="113" height="125" fill="#4db8ef" stroke="#4db8ef" stroke-width="1"/>
    </clipPath>
  </defs>
  <g id="Mask_Group_27" data-name="Mask Group 27" clip-path="url(#clip-path)">
    <g id="Component_8_1" data-name="Component 8 – 1" transform="translate(8.462 6.001)">
      <path id="Path_26" data-name="Path 26" d="M64.578,68V41.6c.02-12.4-6.886-22.86-16.063-24.324L53.2,4.728a2.456,2.456,0,0,0-.064-1.839,1.372,1.372,0,0,0-1.2-.89H26.645a1.376,1.376,0,0,0-1.2.894,2.456,2.456,0,0,0-.062,1.835l4.677,12.545C20.9,18.775,14.011,29.209,14,41.6v33.94h2.81V41.6c.01-11.45,6.923-20.728,15.454-20.741h14.05c4.1-.008,8.035,2.175,10.935,6.066A24.758,24.758,0,0,1,61.768,41.6V68ZM45.446,17.085H33.133L28.918,5.771H49.66Z" transform="translate(8.628 -2)" fill="#4db8ef" stroke="#4db8ef" stroke-width="1"/>
      <path id="Path_27" data-name="Path 27" d="M24.387,19.289a13.071,13.071,0,0,1,3.3-1.354l-.943-3.65a17,17,0,0,0-4.244,1.74Z" transform="translate(9.958 10.165)" fill="#4db8ef" stroke="#4db8ef" stroke-width="1"/>
      <path id="Path_28" data-name="Path 28" d="M18,36.258h3.771V28.715A13.1,13.1,0,0,1,25.78,19.25l-2.627-2.7A16.832,16.832,0,0,0,18,28.715Z" transform="translate(7.215 12.644)" fill="#4db8ef" stroke="#4db8ef" stroke-width="1"/>
      <path id="Path_29" data-name="Path 29" d="M6.555,62.356,33.671,79.814a18.32,18.32,0,0,0,9.952,3H96.235a1.759,1.759,0,0,0,1.6-1.886V46.992a1.759,1.759,0,0,0-1.6-1.886H84.011l-.182-.168a24.659,24.659,0,0,0-6.159-4.18,22.513,22.513,0,0,0-23.626,2.463H41.93a7.668,7.668,0,0,0-6.44,3.849,10.842,10.842,0,0,0-1.18,8.407L14.565,43.8A7.49,7.49,0,0,0,5.517,44.82,11.094,11.094,0,0,0,2,53.1v.207a10.678,10.678,0,0,0,4.555,9.047Zm78.5-13.478h9.583V79.047H85.054ZM5.194,53.1a7.106,7.106,0,0,1,2.314-5.336,4.68,4.68,0,0,1,5.627-.6L38.022,61.877a1.388,1.388,0,0,0,.714.2H62.694V58.306H41.93c-2.646,0-4.792-2.533-4.792-5.657s2.145-5.657,4.792-5.657H54.516a1.439,1.439,0,0,0,.88-.311,19.77,19.77,0,0,1,21.083-2.425,21.6,21.6,0,0,1,5.381,3.65v31.14H43.623a15.5,15.5,0,0,1-8.42-2.542L8.079,59.043a6.762,6.762,0,0,1-2.885-5.734Z" transform="translate(-2 36.319)" fill="#4db8ef" stroke="#4db8ef" stroke-width="1"/>
      <rect id="Rectangle_44" data-name="Rectangle 44" width="4.177" height="4.177" transform="translate(83.998 105.549)" fill="#4db8ef" stroke="#4db8ef" stroke-width="1"/>
      <path id="Path_30" data-name="Path 30" d="M39.2,52.94V49.169h1.886a7.542,7.542,0,1,0,0-15.085H33.542a3.771,3.771,0,1,1,0-7.542h13.2V22.771H39.2V19H35.428v3.771H33.542a7.542,7.542,0,1,0,0,15.085h7.542a3.771,3.771,0,0,1,0,7.542h-13.2v3.771h7.542V52.94Z" transform="translate(10.603 15.485)" fill="#4db8ef" stroke="#4db8ef" stroke-width="1"/>
    </g>
  </g>
</svg>
