<svg xmlns="http://www.w3.org/2000/svg" xmlns:xlink="http://www.w3.org/1999/xlink" width="55" height="55" viewBox="0 0 55 55">
  <defs>
    <clipPath id="clip-path">
      <rect id="Rectangle_417" data-name="Rectangle 417" width="55" height="55" transform="translate(-0.025 0)" fill="#4db8ef"/>
    </clipPath>
  </defs>
  <g id="Mask_Group_54" data-name="Mask Group 54" transform="translate(0.025)" clip-path="url(#clip-path)">
    <g id="Group_531" data-name="Group 531" transform="translate(6.257 1.949)">
      <path id="Path_661" data-name="Path 661" d="M448.714,35h-1.643a.821.821,0,1,0,0,1.643h1.643a.821.821,0,0,0,0-1.643Z" transform="translate(-416.735 -31.714)" fill="#4db8ef"/>
      <path id="Path_662" data-name="Path 662" d="M396.214,35h-1.643a.821.821,0,0,0,0,1.643h1.643a.821.821,0,1,0,0-1.643Z" transform="translate(-368.895 -31.714)" fill="#4db8ef"/>
      <g id="Group_530" data-name="Group 530" transform="translate(0 0)">
        <path id="Path_663" data-name="Path 663" d="M115.3,213.848h15.21v2.537h-3.588a.806.806,0,0,0,0,1.611h15.717a.806.806,0,0,0,0-1.611h-3.549v-2.537H154.3a1.591,1.591,0,0,0,1.56-1.611V184.931a1.591,1.591,0,0,0-1.56-1.611h-2.379a.806.806,0,0,0,0,1.611H154.3v20.9h-1.56v-8.86a.78.78,0,1,0-1.56,0v8.82h-32.76v-8.82a.78.78,0,1,0-1.56,0v8.82H115.3V184.931h2.3a.806.806,0,0,0,0-1.611h-2.3a1.591,1.591,0,0,0-1.56,1.611v27.306a1.591,1.591,0,0,0,1.56,1.611Zm22.23,2.416h-5.46v-2.416h5.46ZM115.3,207.4h39v4.833h-39Z" transform="translate(-113.738 -166.11)" fill="#4db8ef"/>
        <path id="Path_664" data-name="Path 664" d="M518.714,462.44h-1.643a.821.821,0,0,0,0,1.643h1.643a.821.821,0,0,0,0-1.643Z" transform="translate(-480.7 -419.713)" fill="#4db8ef"/>
        <path id="Path_665" data-name="Path 665" d="M185.275,38.526H211.2a1.592,1.592,0,0,0,1.525-1.643V1.643A1.592,1.592,0,0,0,211.2,0H185.275a1.592,1.592,0,0,0-1.525,1.643v35.24A1.592,1.592,0,0,0,185.275,38.526Zm0-36.883H211.2V6.572H185.275Zm0,6.53H211.2V36.842H185.275Z" transform="translate(-177.177)" fill="#4db8ef"/>
        <path id="Path_666" data-name="Path 666" d="M246.53,101.94a10.737,10.737,0,0,0-10.72,10.637v.082a10.574,10.574,0,0,0,3.861,8.132.865.865,0,0,0,.534.205H252.9a.865.865,0,0,0,.534-.205,10.774,10.774,0,0,0,3.861-8.132v-.082a10.8,10.8,0,0,0-10.76-10.637Zm-3.614,2.382a12.516,12.516,0,0,0-1.643,4.313,12.545,12.545,0,0,0-3.409,1.232,9.348,9.348,0,0,1,5.052-5.545Zm-5.463,8.338c0-.739,1.314-1.643,3.573-2.259a20.766,20.766,0,0,0,0,4.518c-2.259-.616-3.573-1.52-3.573-2.259Zm3.039,6.736a9.2,9.2,0,0,1-2.587-3.984,12.548,12.548,0,0,0,3.409,1.232,16.278,16.278,0,0,0,.821,2.752Zm5.216,0h-1.766a10.681,10.681,0,0,1-.863-2.423,18.987,18.987,0,0,0,2.67.205Zm0-3.861a24.681,24.681,0,0,1-3-.287,18.786,18.786,0,0,1,0-5.257,23.918,23.918,0,0,1,3-.288Zm0-7.434c-.9.041-1.766.123-2.67.205.575-2.259,1.561-3.943,2.67-4.518Zm9.446,1.766a12.547,12.547,0,0,0-3.409-1.232,12.518,12.518,0,0,0-1.643-4.313,9.107,9.107,0,0,1,5.052,5.545Zm-7.8-6.038c1.109.575,2.095,2.259,2.67,4.518a18.986,18.986,0,0,0-2.67-.205Zm1.766,15.566h-1.766v-2.218c.9-.041,1.766-.123,2.67-.205a10.819,10.819,0,0,1-.9,2.423Zm1.232-4.107a23.916,23.916,0,0,1-3,.287v-5.832a24.681,24.681,0,0,1,3,.288A18.786,18.786,0,0,1,250.349,115.288Zm2.218,4.107h-1.643a13.227,13.227,0,0,0,.821-2.752,12.545,12.545,0,0,0,3.409-1.232,8.969,8.969,0,0,1-2.587,3.984Zm3.039-6.736c0,.739-1.314,1.643-3.573,2.259a20.77,20.77,0,0,0,0-4.518c2.259.616,3.573,1.52,3.573,2.259Z" transform="translate(-225.471 -92.566)" fill="#4db8ef"/>
      </g>
    </g>
  </g>
</svg>
