<svg xmlns="http://www.w3.org/2000/svg" width="67.045" height="67.047" viewBox="0 0 67.045 67.047">
  <path id="iconmonstr-instagram-11" d="M33.523,6.037c8.95,0,10.013.034,13.547.2,9.084.414,13.328,4.724,13.742,13.742.162,3.534.193,4.6.193,13.547s-.034,10.013-.193,13.547C60.4,56.078,56.163,60.4,47.071,60.811c-3.534.162-4.593.2-13.547.2s-10.013-.034-13.547-.2c-9.108-.417-13.328-4.746-13.742-13.744-.162-3.534-.2-4.593-.2-13.547s.037-10.013.2-13.547C6.651,10.957,10.883,6.644,19.976,6.23c3.534-.159,4.6-.193,13.547-.193Zm0-6.037c-9.1,0-10.244.04-13.82.2C7.529.76.763,7.51.2,19.7.04,23.279,0,24.419,0,33.523S.04,43.771.2,47.346c.558,12.173,7.308,18.94,19.5,19.5,3.578.162,4.712.2,13.823.2s10.247-.04,13.823-.2c12.163-.558,18.945-7.314,19.5-19.5.165-3.575.2-4.712.2-13.823s-.04-10.244-.2-13.82C66.3,7.539,59.534.763,47.349.2,43.769.04,42.626,0,33.523,0Zm0,16.308A17.215,17.215,0,1,0,50.737,33.522,17.216,17.216,0,0,0,33.523,16.308Zm0,28.389A11.175,11.175,0,1,1,44.7,33.522,11.175,11.175,0,0,1,33.523,44.7Zm17.9-33.089a4.023,4.023,0,1,0,4.02,4.023A4.023,4.023,0,0,0,51.419,11.608Z" fill="#fff"/>
</svg>
