<svg xmlns="http://www.w3.org/2000/svg" width="67.044" height="67.044" viewBox="0 0 67.044 67.044">
  <path id="linkedin" d="M53.077,0H13.967A13.968,13.968,0,0,0,0,13.965V53.077A13.968,13.968,0,0,0,13.965,67.044H53.077A13.967,13.967,0,0,0,67.044,53.077V13.967A13.967,13.967,0,0,0,53.077,0ZM22.348,53.077H13.967V22.348h8.38ZM18.158,18.806a4.929,4.929,0,1,1,4.889-4.927A4.929,4.929,0,0,1,18.158,18.806ZM55.87,53.077H47.489V37.421c0-9.408-11.173-8.7-11.173,0V53.077h-8.38V22.348h8.38v4.93c3.9-7.224,19.555-7.757,19.555,6.921Z" fill="#fff"/>
</svg>
