<svg id="Group_455" data-name="Group 455" xmlns="http://www.w3.org/2000/svg" width="72.275" height="59.678" viewBox="0 0 72.275 59.678">
  <g id="Group_452" data-name="Group 452">
    <path id="Path_583" data-name="Path 583" d="M187.275,145.187h-65.1c-.672,0-1.352-.034-2.023,0h-.043c-.017,0,.111.017.1.026s-.034-.009-.051-.009c-.068-.017-.077-.017-.009.017l.051.025c-.111-.068-.128-.077-.06-.017.1.077-.2-.264-.043-.034-.077-.111-.008-.06-.026-.051l.026.051c-.008-.034-.017-.077-.026-.111l.026.111v-.1c.026-.332,0-.68,0-1.012V90.8c0-.068-.043-.221-.008-.119s-.009.017.008-.051c-.068.2-.043.06,0,0-.119.17.008-.017.077-.077-.179.136.136-.008-.077.077.077-.034.2,0,0,0H186.6c.2,0,.417.008.629,0h.034c-.034,0-.179-.068-.051-.008.145.068-.043-.043-.043-.043s.187.111.06.017c-.111-.085.025.025.042.034s.128.153.034.043c-.077-.1.043.179-.034-.043.077.23.009-.051,0,.017v.085c-.068.867,0,1.76,0,2.627v51.544a2.072,2.072,0,0,0,0,.23.182.182,0,0,1,.009.051c0-.119.043-.119,0,0,.077-.213-.068.1.077-.077a1.526,1.526,0,0,1-.111.119c-.017.008-.026.025-.043.034.1-.077.111-.094.034-.051,0,.009-.085.026.043-.025-.068.025-.221.008,0,0a1.275,1.275,0,1,0,0,2.55,2.619,2.619,0,0,0,2.55-2.7V93.311c0-.867.008-1.726,0-2.593a2.605,2.605,0,0,0-2.559-2.635c-.17-.008-.34,0-.51,0H120.471a5.371,5.371,0,0,0-.825.051,2.586,2.586,0,0,0-2.083,2.525c-.008.323,0,.646,0,.969V145.11a2.613,2.613,0,0,0,2.567,2.635c.6.025,1.207,0,1.811,0h65.334a1.29,1.29,0,0,0,1.275-1.275,1.3,1.3,0,0,0-1.275-1.284Z" transform="translate(-117.56 -88.079)" fill="#00a8ff"/>
    <path id="Path_584" data-name="Path 584" d="M118.845,161.763h66.881c.91,0,1.811.017,2.72,0h.119a1.275,1.275,0,1,0,0-2.55H121.685c-.91,0-1.811-.017-2.72,0h-.119a1.275,1.275,0,1,0,0,2.55Z" transform="translate(-117.567 -148.148)" fill="#00a8ff"/>
    <path id="Path_585" data-name="Path 585" d="M152.348,121.888v.06c.017-.111.034-.23.043-.34a.49.49,0,0,1-.026.119c.026-.068.051-.136.077-.2.145-.17.179-.213.111-.145-.043.043-.026.026.059-.043a.379.379,0,0,1,.179-.1c.213-.085.034-.026-.017-.017.111-.017.23-.034.34-.043a.322.322,0,0,1-.128,0c.111.017.23.034.34.043a.49.49,0,0,1-.119-.026c.068.026.136.051.2.077.17.145.213.179.145.111-.043-.043-.026-.026.042.06a.378.378,0,0,1,.1.179c.085.213.025.034.017-.017.017.111.034.23.042.34a.323.323,0,0,1,0-.128c-.017.111-.034.23-.042.34a.491.491,0,0,1,.025-.119c-.025.068-.051.136-.076.2-.145.17-.179.213-.111.145.042-.043.025-.026-.06.043a.378.378,0,0,1-.179.1c-.213.085-.034.026.017.017-.111.017-.23.034-.34.043a.322.322,0,0,1,.128,0c-.111-.017-.23-.034-.34-.043a.49.49,0,0,1,.119.025c-.068-.025-.136-.051-.2-.076-.17-.145-.213-.179-.145-.111.042.043.026.026-.043-.06a.378.378,0,0,1-.1-.179c-.085-.213-.026-.034-.017.017-.017-.111-.034-.23-.043-.34v.068a1.275,1.275,0,1,0,2.55,0,1.9,1.9,0,0,0-.544-1.3,1.84,1.84,0,1,0-1.335,3.137,1.823,1.823,0,0,0,1.309-.519,1.94,1.94,0,0,0,.561-1.326,1.29,1.29,0,0,0-1.275-1.275,1.314,1.314,0,0,0-1.267,1.284Z" transform="translate(-145.978 -115.074)" fill="#00a8ff"/>
    <path id="Path_586" data-name="Path 586" d="M221.528,121.888v.06c.017-.111.034-.23.043-.34a.49.49,0,0,1-.026.119c.026-.068.051-.136.077-.2.145-.17.179-.213.111-.145-.043.043-.026.026.06-.043a.379.379,0,0,1,.179-.1c.213-.085.034-.026-.017-.017.111-.017.23-.034.34-.043a.322.322,0,0,1-.128,0c.111.017.23.034.34.043a.49.49,0,0,1-.119-.026c.068.026.136.051.2.077.17.145.213.179.145.111-.043-.043-.025-.026.043.06a.379.379,0,0,1,.1.179c.085.213.026.034.017-.017.017.111.034.23.043.34a.322.322,0,0,1,0-.128c-.017.111-.034.23-.043.34a.49.49,0,0,1,.026-.119c-.026.068-.051.136-.077.2-.145.17-.179.213-.111.145.043-.043.026-.026-.06.043a.378.378,0,0,1-.179.1c-.213.085-.034.026.017.017-.111.017-.23.034-.34.043a.322.322,0,0,1,.128,0c-.111-.017-.23-.034-.34-.043a.49.49,0,0,1,.119.025c-.068-.025-.136-.051-.2-.076-.17-.145-.213-.179-.145-.111.043.043.025.026-.043-.06a.378.378,0,0,1-.1-.179c-.085-.213-.025-.034-.017.017-.017-.111-.034-.23-.043-.34v.068a1.275,1.275,0,1,0,2.55,0,1.9,1.9,0,0,0-.544-1.3,1.84,1.84,0,1,0-1.335,3.137,1.823,1.823,0,0,0,1.309-.519,1.94,1.94,0,0,0,.561-1.326,1.29,1.29,0,0,0-1.275-1.275,1.314,1.314,0,0,0-1.267,1.284Z" transform="translate(-204.403 -115.074)" fill="#00a8ff"/>
    <path id="Path_587" data-name="Path 587" d="M186.968,121.888v.06c.017-.111.034-.23.042-.34a.491.491,0,0,1-.025.119c.025-.068.051-.136.077-.2.145-.17.179-.213.111-.145-.043.043-.026.026.06-.043a.378.378,0,0,1,.179-.1c.213-.085.034-.026-.017-.017.111-.017.23-.034.34-.043a.322.322,0,0,1-.128,0c.111.017.23.034.34.043a.49.49,0,0,1-.119-.026c.068.026.136.051.2.077.17.145.213.179.145.111-.043-.043-.026-.026.042.06a.378.378,0,0,1,.1.179c.085.213.026.034.017-.017.017.111.034.23.042.34a.323.323,0,0,1,0-.128c-.017.111-.034.23-.042.34a.491.491,0,0,1,.025-.119c-.025.068-.051.136-.076.2-.145.17-.179.213-.111.145.042-.043.025-.026-.06.043a.378.378,0,0,1-.179.1c-.213.085-.034.026.017.017-.111.017-.23.034-.34.043a.322.322,0,0,1,.128,0c-.111-.017-.23-.034-.34-.043a.491.491,0,0,1,.119.025c-.068-.025-.136-.051-.2-.076-.17-.145-.213-.179-.145-.111.042.043.025.026-.043-.06a.379.379,0,0,1-.1-.179c-.085-.213-.025-.034-.017.017-.017-.111-.034-.23-.042-.34a.183.183,0,0,0,0,.068,1.275,1.275,0,1,0,2.55,0,1.9,1.9,0,0,0-.544-1.3,1.84,1.84,0,1,0-1.335,3.137,1.823,1.823,0,0,0,1.309-.519,1.94,1.94,0,0,0,.561-1.326,1.29,1.29,0,0,0-1.275-1.275,1.308,1.308,0,0,0-1.267,1.284Z" transform="translate(-175.216 -115.074)" fill="#00a8ff"/>
    <path id="Path_588" data-name="Path 588" d="M227.3,222.344h6.1c-.408-.315-.816-.621-1.233-.935.5,1.947.995,3.9,1.5,5.849q1.186,4.655,2.38,9.318c.179.706.366,1.42.544,2.125a1.293,1.293,0,0,0,1.233.935h18.771a1.3,1.3,0,0,0,1.233-.935q1.3-5.063,2.6-10.134c.119-.476.247-.961.366-1.437a1.293,1.293,0,0,0-1.233-1.615H242.334a1.275,1.275,0,0,0,0,2.55h17.215c-.408-.536-.816-1.08-1.233-1.615q-1.3,5.063-2.6,10.134c-.119.476-.247.961-.366,1.437.408-.315.816-.621,1.233-.935H237.811c.408.315.816.621,1.233.935-.5-1.947-.995-3.9-1.5-5.849q-1.186-4.655-2.38-9.318c-.179-.706-.366-1.42-.544-2.125a1.293,1.293,0,0,0-1.233-.935h-6.1a1.275,1.275,0,0,0,0,2.55Z" transform="translate(-209.158 -199.318)" fill="#00a8ff"/>
    <path id="Path_589" data-name="Path 589" d="M300.868,370.248c-.009.3.068-.144,0,.111-.026.085-.1.323-.009.119a1.933,1.933,0,0,1-.162.289c.128-.221-.017.025-.077.076-.077.077-.255.179-.077.077a1.933,1.933,0,0,1-.289.161c.255-.11-.085,0-.119.009-.306.085.213,0-.111,0s.2.085-.111,0c-.034-.009-.374-.119-.119-.009a1.925,1.925,0,0,1-.289-.161c.213.119-.025-.026-.077-.077s-.2-.289-.076-.076a1.933,1.933,0,0,1-.162-.289c.111.255,0-.085-.009-.119-.085-.315,0,.213,0-.111,0-.272-.077.162,0-.11.017-.06.119-.366.009-.119a1.927,1.927,0,0,1,.162-.289c-.1.179,0,0,.076-.077.051-.051.3-.2.077-.076a3.179,3.179,0,0,1,.289-.162c-.2.085.034.009.119-.008.255-.068-.178,0,.111,0,.272,0-.162-.076.111,0,.059.017.366.119.119.008a2.126,2.126,0,0,1,.238.128c.077.051.06.034-.034-.042a.732.732,0,0,1,.119.111c.026.034.23.281.145.153s.085.161.1.2l-.025-.051a.9.9,0,0,1,.043.162,1.086,1.086,0,0,1,.034.161c-.017-.136-.017-.136-.008.017a1.275,1.275,0,1,0,2.55,0,3.452,3.452,0,0,0-2.278-3.2,3.384,3.384,0,0,0-3.656.961,3.39,3.39,0,1,0,5.942,2.236,1.29,1.29,0,0,0-1.275-1.275,1.3,1.3,0,0,0-1.284,1.275Z" transform="translate(-268.807 -323.521)" fill="#00a8ff"/>
    <path id="Path_590" data-name="Path 590" d="M386.128,370.248c-.009.3.068-.144,0,.111-.026.085-.1.323-.009.119a1.93,1.93,0,0,1-.162.289c.128-.221-.017.025-.077.076-.077.077-.255.179-.077.077a1.932,1.932,0,0,1-.289.161c.255-.11-.085,0-.119.009-.306.085.213,0-.111,0s.2.085-.11,0c-.034-.009-.374-.119-.119-.009a1.925,1.925,0,0,1-.289-.161c.213.119-.026-.026-.077-.077s-.2-.289-.077-.076a1.935,1.935,0,0,1-.162-.289c.111.255,0-.085-.008-.119-.085-.315,0,.213,0-.111,0-.272-.077.162,0-.11.017-.06.119-.366.008-.119a1.935,1.935,0,0,1,.162-.289c-.1.179,0,0,.077-.077.051-.051.3-.2.077-.076a3.175,3.175,0,0,1,.289-.162c-.2.085.034.009.119-.008.255-.068-.179,0,.11,0,.272,0-.162-.076.111,0,.06.017.366.119.119.008a2.126,2.126,0,0,1,.238.128c.077.051.06.034-.034-.042a.733.733,0,0,1,.119.111c.025.034.23.281.145.153s.085.161.1.2l-.026-.051a.9.9,0,0,1,.043.162,1.086,1.086,0,0,1,.034.161c-.008-.136-.017-.136-.008.017a1.275,1.275,0,1,0,2.55,0,3.452,3.452,0,0,0-2.278-3.2,3.384,3.384,0,0,0-3.656.961,3.39,3.39,0,1,0,5.942,2.236,1.29,1.29,0,0,0-1.275-1.275,1.3,1.3,0,0,0-1.284,1.275Z" transform="translate(-340.813 -323.521)" fill="#00a8ff"/>
  </g>
</svg>
