<svg xmlns="http://www.w3.org/2000/svg" xmlns:xlink="http://www.w3.org/1999/xlink" width="121" height="89.868" viewBox="0 0 121 89.868">
  <defs>
    <clipPath id="clip-path">
      <rect id="Rectangle_379" data-name="Rectangle 379" width="121" height="89.868" transform="translate(0 0.001)" fill="#fff"/>
    </clipPath>
  </defs>
  <g id="Mask_Group_43" data-name="Mask Group 43" transform="translate(0 -0.001)" clip-path="url(#clip-path)">
    <g id="Component_46_1" data-name="Component 46 – 1" transform="translate(28.82 0.001)">
      <path id="Path_89" data-name="Path 89" d="M57.289,5.8A29.389,29.389,0,0,0,46.62,5.3C28.77,8.5,17.076,26.222,24.052,42.238c7.9,18.018,17.85,35.236,26.672,52.854C59.546,77.474,69.5,60.356,77.4,42.338,84.064,27.022,73.806,10.305,57.289,5.8ZM50.724,49.245A15.367,15.367,0,1,1,66.317,33.929,15.5,15.5,0,0,1,50.724,49.245Z" transform="translate(-22.006 -5.027)" fill="#fff"/>
    </g>
  </g>
</svg>
