<svg id="Component_48_1" data-name="Component 48 – 1" xmlns="http://www.w3.org/2000/svg" width="123.256" height="114.639" viewBox="0 0 123.256 114.639">
  <path id="Path_490" data-name="Path 490" d="M244.15,159.686c-9.244-4.218-23.191-9.086-26.6-10.222a47.137,47.137,0,0,0-2.6-7.626,4.428,4.428,0,0,0-2.432-2.433l.325-5.68c3.082-2.758,4.379-7.3,5.027-10.709.325-1.623.325-2.92.486-3.732.648-.973,1.622-3.245,2.757-8.438a12.058,12.058,0,0,0,.325-4.056,6.732,6.732,0,0,0-1.136-4.381l-.162-.162a59.153,59.153,0,0,0,2.109-14.116,16.807,16.807,0,0,0-1.3-7.3c-3.082-6.166-6.973-9.9-12.163-12.169-1.3-.649-12.975-5.841-18.813-5.03-9.893,1.46-12.163,7.626-12.65,10.222a9.8,9.8,0,0,1-3.568.649c-2.27.325-4.541.487-6.325,4.7a33.69,33.69,0,0,0-2.6,13.306,27.51,27.51,0,0,0,1.622,9.9,6.526,6.526,0,0,0-1.136,4.218c0,1.136.162,2.433.325,4.056.973,5.193,2.109,7.464,2.757,8.438a19.8,19.8,0,0,0,.486,3.57c.486,3.57,1.946,7.951,5.027,10.709l.325,5.68a4.435,4.435,0,0,0-2.432,2.433,53.069,53.069,0,0,0-2.6,7.626c-3.73,1.46-17.677,6.328-26.922,10.546a18.654,18.654,0,0,0-10.7,16.874,1.533,1.533,0,0,0,1.622,1.623H253.232a1.533,1.533,0,0,0,1.622-1.623,18.832,18.832,0,0,0-10.7-16.874Zm-30.165-10.871L205.552,160.5a58.626,58.626,0,0,0-6.973-9.411c3.406-1.136,7.947-3.732,13.136-8.6.162.162.162.325.325.649a58.19,58.19,0,0,1,1.946,5.68Zm-42-26.772a31.9,31.9,0,0,1-.325-4.056,1.474,1.474,0,0,0-.486-1.136s-1.136-1.46-2.27-7.464a22.345,22.345,0,0,1-.325-2.6,2.791,2.791,0,0,1,.325-1.46,1.221,1.221,0,0,0,1.136-.812,1.425,1.425,0,0,0,.162-1.136,2.771,2.771,0,0,0-.162-1.136c-.162-.162-1.784-3.408-2.109-8.761a29.819,29.819,0,0,1,2.432-12.007c.973-2.433,1.459-2.433,3.568-2.758a15.967,15.967,0,0,0,5.19-1.3,1.56,1.56,0,0,0,.973-1.46s.162-6.653,9.893-8.113c4.054-.649,13.623,3.245,17.029,4.7,4.541,1.785,7.784,5.193,10.541,10.546a13.17,13.17,0,0,1,.973,5.354,62.568,62.568,0,0,1-2.432,13.954c-.162.325,0,.649,0,.812a1.263,1.263,0,0,0,.325,1.3c.325.325.648.649.973.649a3.611,3.611,0,0,1,.325,1.46,22.124,22.124,0,0,1-.325,2.6c-1.136,5.841-2.27,7.3-2.27,7.3a1.472,1.472,0,0,0-.486,1.136,33.4,33.4,0,0,1-.325,4.218c-.486,2.92-1.622,6.653-4.379,8.761l-.162.162c-3.893,4.218-7.784,8.113-11.028,9.249A17.582,17.582,0,0,1,185.6,139.4c-5.19-2.433-8.6-8.113-8.6-8.275l-.486-.487c-2.92-1.783-4.056-5.839-4.542-8.6Zm2.433,21.093c.162-.162.162-.325.325-.487a33.164,33.164,0,0,0,11.352,8.113c-3.893,3.083-6.487,9.249-7.622,12.818-3.73-4.868-6.163-12.818-6.487-13.467a60.382,60.382,0,0,1,2.432-6.976Zm17.191,31.8H135a15.571,15.571,0,0,1,8.757-12.169c8.6-4.056,21.57-8.6,25.786-10.06,1.136,3.408,4.216,11.358,8.757,15.414a1.471,1.471,0,0,0,1.136.487h.486a1.96,1.96,0,0,0,1.136-1.136c.973-3.732,4.379-13.954,9.568-15.089v-.162c.325,0,.648.162.973.162h.325v22.554Zm.325-25.962c-7.3-1.136-12.65-6.328-14.434-8.275l-.162-3.408a20.532,20.532,0,0,0,15.893,7.3,20,20,0,0,0,6.811-1.136c3.082-1.136,6.163-3.894,9.406-7.14l-.162,4.218c-10.219,9.575-17.354,8.439-17.354,8.439Zm2.919,25.962V152.384c2.109,1.136,6.325,6.976,9.245,12.007a1.655,1.655,0,0,0,1.3.812h.162a2.006,2.006,0,0,0,1.3-.649l8.92-12.331c.162,0,16.866,5.68,27.084,10.546a15.568,15.568,0,0,1,8.757,12.169Z" transform="translate(-131.598 -63.545)" fill="#77c7f1"/>
</svg>
