<svg xmlns="http://www.w3.org/2000/svg" width="64.563" height="74.904" viewBox="0 0 64.563 74.904">
  <g id="Group_458" data-name="Group 458" transform="translate(0.546 0.5)">
    <path id="Path_591" data-name="Path 591" d="M168.669,61.266l-16.95-15.029a24.22,24.22,0,0,0,4.52-15.707,24.561,24.561,0,0,0-8.7-17.4,15.822,15.822,0,0,0-31.642-.113,24.48,24.48,0,0,0-8.588,22.036,24.8,24.8,0,0,0,24.408,21.245h.339a24.606,24.606,0,0,0,13.674-4.407l14.69,17.4a5.536,5.536,0,0,0,4.181,2.034h.226a5.373,5.373,0,0,0,4.068-1.695,5.619,5.619,0,0,0,1.695-4.294,5.014,5.014,0,0,0-1.92-4.068ZM131.717-.773a14.13,14.13,0,0,1,14.125,14.125c0,8.7-11.413,21.81-14.125,24.635C129.118,35.05,117.7,21.941,117.7,13.24A14.01,14.01,0,0,1,131.717-.773Zm36.048,69.384a4.366,4.366,0,0,1-3.051,1.243,3.748,3.748,0,0,1-2.938-1.469L146.069,49.74l-.678.452a21.839,21.839,0,0,1-13.334,4.52,22.855,22.855,0,0,1-22.939-19.776,23.307,23.307,0,0,1,7.006-19.776c1.243,8.588,10.283,19.21,13.674,23.166h-4.181v1.695h12.2V38.327H133.64c3.5-3.842,12.317-14.465,13.674-23.052a22.634,22.634,0,0,1,2.6,30.4l-.452.678L167.655,62.4a4.375,4.375,0,0,1,1.469,3.051,4.531,4.531,0,0,1-1.356,3.164Z" transform="translate(-107.086 2.58)" fill="#00a8ff" stroke="#00a8ff" stroke-width="1"/>
    <path id="Path_592" data-name="Path 592" d="M514.608,485.8l-1.2-1.2,1.2-1.2,1.2,1.2Z" transform="translate(-460.115 -419.659)" fill="#00a8ff" stroke="#00a8ff" stroke-width="1"/>
    <path id="Path_593" data-name="Path 593" d="M535.825,506.833l-1.2-1.2,1.2-1.2,1.2,1.2Z" transform="translate(-478.549 -437.934)" fill="#00a8ff" stroke="#00a8ff" stroke-width="1"/>
    <path id="Path_594" data-name="Path 594" d="M239.576,53.768a9.831,9.831,0,1,0-9.831,9.831A9.838,9.838,0,0,0,239.576,53.768Zm-17.854,0a8.136,8.136,0,1,1,8.136,8.136A8.1,8.1,0,0,1,221.722,53.768Z" transform="translate(-205.115 -37.836)" fill="#00a8ff" stroke="#00a8ff" stroke-width="1"/>
  </g>
</svg>
