<svg xmlns="http://www.w3.org/2000/svg" width="82.501" height="67.057" viewBox="0 0 82.501 67.057">
  <path id="iconmonstr-twitter-1" d="M82.5,10.189a33.793,33.793,0,0,1-9.719,2.664,16.953,16.953,0,0,0,7.442-9.364A33.906,33.906,0,0,1,69.475,7.6,16.934,16.934,0,0,0,40.628,23.032,48.05,48.05,0,0,1,5.743,5.348a16.949,16.949,0,0,0,5.236,22.6,16.854,16.854,0,0,1-7.657-2.117A16.934,16.934,0,0,0,16.9,42.641a16.965,16.965,0,0,1-7.645.295A16.934,16.934,0,0,0,25.064,54.688,34.033,34.033,0,0,1,0,61.693a47.916,47.916,0,0,0,25.946,7.6c31.425,0,49.182-26.541,48.109-50.345A34.457,34.457,0,0,0,82.5,10.19Z" transform="translate(0 -2.24)" fill="#fff"/>
</svg>
