<svg xmlns="http://www.w3.org/2000/svg" xmlns:xlink="http://www.w3.org/1999/xlink" width="120" height="132" viewBox="0 0 120 132">
  <defs>
    <clipPath id="clip-path">
      <rect id="Rectangle_336" data-name="Rectangle 336" width="120" height="132" transform="translate(0 0)" fill="#4db8ef" stroke="#4db8ef" stroke-width="1"/>
    </clipPath>
  </defs>
  <g id="Mask_Group_26" data-name="Mask Group 26" clip-path="url(#clip-path)">
    <g id="Component_9_1" data-name="Component 9 – 1" transform="translate(5.757 6.361)">
      <path id="Path_31" data-name="Path 31" d="M28.491,43.94V14.684a2.746,2.746,0,1,0-5.491,0V45.057a2.813,2.813,0,0,0,.069.343,2.7,2.7,0,0,0,.137.681,2.473,2.473,0,0,0,.368.579,2.289,2.289,0,0,0,.2.3L35.525,59.1a2.745,2.745,0,0,0,3.945-3.819Z" transform="translate(27.482 16.913)" fill="#4db8ef" stroke="#4db8ef" stroke-width="1"/>
      <g id="Group_48" data-name="Group 48">
        <path id="Path_32" data-name="Path 32" d="M73.914,20.59a53.558,53.558,0,0,0-38.1-11.634,10.949,10.949,0,1,0,.973,5.579A48.2,48.2,0,0,1,77.854,92.8a2.813,2.813,0,0,0,4.39,3.519A53.932,53.932,0,0,0,73.914,20.59Z" transform="translate(13.629 -2.672)" fill="#4db8ef" stroke="#4db8ef" stroke-width="1"/>
        <path id="Path_33" data-name="Path 33" d="M72.947,84.5A10.9,10.9,0,0,0,62.12,94.474a48.2,48.2,0,0,1-41.07-78.268,2.812,2.812,0,0,0-4.388-3.519,53.877,53.877,0,0,0,41.947,87.577c1.487,0,2.991-.093,4.483-.219A10.905,10.905,0,1,0,72.947,84.5Z" transform="translate(-4.842 13.56)" fill="#4db8ef" stroke="#4db8ef" stroke-width="1"/>
      </g>
    </g>
  </g>
</svg>
