<svg id="Group_443" data-name="Group 443" xmlns="http://www.w3.org/2000/svg" width="143.517" height="129.702" viewBox="0 0 143.517 129.702">
  <path id="Path_151" data-name="Path 151" d="M361.668,425.074l2.788-1.248-3.492-11.612-4.116,1.842Z" transform="translate(-294.287 -322.4)" fill="#ffb6b6"/>
  <path id="Path_152" data-name="Path 152" d="M564.736,598.551l4.171-2.946,1.151,1.856,5.883.289a1.364,1.364,0,0,1,.652,2.522l-5.157,3.2-2.028-1.284.792,2.051-1.945,1.206Z" transform="translate(-500.373 -499.029)" fill="#2f2e41"/>
  <path id="Path_153" data-name="Path 153" d="M384.185,492.474c0-1.168-.3-2.116-.665-2.118H283.628c-.368,0-.665.95-.667,2.118v48.075a.409.409,0,0,1-.3.434q-.4.051-.8.094l-.02,0c-.146.017-.292.031-.438.046h0q-.113-.273-.223-.552a.553.553,0,0,1-.038-.2V489.726c0-.322.01-.647.027-.967q.036-.66.124-1.312c.28-2.024.914-3.395,1.633-3.4h101.3a.624.624,0,0,1,.305.085,1.25,1.25,0,0,1,.376.346,3.175,3.175,0,0,1,.37.665,10.951,10.951,0,0,1,.7,3.471c0,.013,0,.026,0,.039.023.353.035.712.033,1.072l.023,4.669.015,2.785.045,8.737.017,3.1.073,31.855h0a.4.4,0,0,1-.332.436h-1.333a.4.4,0,0,1-.332-.436Z" transform="translate(-262.356 -411.779)" fill="#e6e6e6"/>
  <path id="Path_154" data-name="Path 154" d="M685.463,383.772H671.318a.755.755,0,0,0-.754.756v22.345h15.654V384.528a.755.755,0,0,0-.756-.756Zm-7.025,12.7a1.678,1.678,0,0,1-1.67-1.67v-2.577a1.67,1.67,0,1,1,3.341,0V394.8a1.678,1.678,0,0,1-1.67,1.67Z" transform="translate(-588.191 -333.351)" fill="#2f2e41"/>
  <path id="Path_155" data-name="Path 155" d="M670.341,486.513v2.156a.422.422,0,0,0,.421.421h14.908a.424.424,0,0,0,.422-.421v-2.156Z" transform="translate(-588.019 -413.707)" fill="#3f3d56"/>
  <path id="Path_156" data-name="Path 156" d="M497.516,225.984a3.016,3.016,0,0,1-4.392,1.451l-19.966,13.909-.551-5.543,19.632-12.719a3.033,3.033,0,0,1,5.278,2.9Z" transform="translate(-425.294 -206.68)" fill="#ffb6b6"/>
  <path id="Path_157" data-name="Path 157" d="M379.323,251.136a4.465,4.465,0,0,0,1.231,6.021c3.393,2.827,17.143,2.265,19.362,2.24s12.4-10.557,12.4-10.557l-.067-6.083-12.293,7.294Z" transform="translate(-347.864 -223.062)" fill="#0306ff"/>
  <path id="Path_158" data-name="Path 158" d="M375.765,378.253l.218,4.14s-.643,3.667-.114,4.458,14.94,1.959,14.94,1.959a51.478,51.478,0,0,1,.363-10.64Z" transform="translate(-344.353 -328.97)" fill="#ffb6b6"/>
  <path id="Path_159" data-name="Path 159" d="M398.225,451.77l-5.549,4.857L381.8,434.386c-10.784,1.855-20.958,2.449-29.758.205a5.688,5.688,0,0,1-4.068-6.872q.051-.214.119-.423c1.053-3.213,3.81-5.487,5.982-9.021l15.866.241-1.772,6.114,15.412-1.994a5.683,5.683,0,0,1,6.322,5.011q.031.251.041.5Z" transform="translate(-323.22 -360.337)" fill="#2f2e41"/>
  <circle id="Ellipse_30" data-name="Ellipse 30" cx="6.442" cy="6.442" r="6.442" transform="translate(31.323 8.539)" fill="#ffb6b6"/>
  <path id="Path_160" data-name="Path 160" d="M369.651,261.362l5.907.695a1.205,1.205,0,0,1,1.037.94l.939,4.3,5.856,6.9A14.46,14.46,0,0,1,384.7,282.6a31.654,31.654,0,0,1-2.442,7.789s-14.4,5.89-14.927,5.1-.7-4.37-.7-4.37l-1.853-20.612a7.4,7.4,0,0,1,2.126-5.943,2.234,2.234,0,0,1,1.3-.782C369.064,263.757,368.955,261.848,369.651,261.362Z" transform="translate(-335.558 -237.612)" fill="#0306ff"/>
  <path id="Path_161" data-name="Path 161" d="M250.479,472.074l2.741,1.343,6.6-10.17-4.046-1.982Z" transform="translate(-206.677 -360.763)" fill="#ffb6b6"/>
  <path id="Path_162" data-name="Path 162" d="M381.445,470.609l-5.632-2.138,7.729-23.215a67.185,67.185,0,0,1-25.337-13.924c-2.346-1.984-4.106-4.531-2.107-6.944q.14-.169.293-.327c2.359-2.422,8.347-1.956,11.853-4.175l7.84,8.37-.491,2.242,14.718,4.989a5.683,5.683,0,0,1,3.473,7.281q-.082.239-.185.47Z" transform="translate(-328.676 -361.597)" fill="#2f2e41"/>
  <path id="Path_163" data-name="Path 163" d="M430.731,655.794l4.712,1.969-.961,1.961,2.88,5.138a1.364,1.364,0,0,1-1.79,1.892l-5.45-2.67.011-2.4-1.317,1.76-2.055-1.007Z" transform="translate(-386.306 -546.104)" fill="#2f2e41"/>
  <path id="Path_164" data-name="Path 164" d="M365.967,396.035a3.016,3.016,0,0,1-.552-4.592l-9.68-22.325,5.542.557,8.58,21.762a3.033,3.033,0,0,1-3.89,4.6Z" transform="translate(-327.854 -321.889)" fill="#ffb6b6"/>
  <path id="Path_165" data-name="Path 165" d="M360.11,279.2a4.465,4.465,0,0,0-6.146.014c-3.443,2.766-5.615,16.355-6.03,18.535S355.826,312,355.826,312l5.975,1.139-4.715-13.493Z" transform="translate(-321.349 -250.613)" fill="#0306ff"/>
  <path id="Path_166" data-name="Path 166" d="M622.367,223.726H561.9a1.963,1.963,0,0,0-1.96,1.96v40.8a1.962,1.962,0,0,0,1.96,1.96h60.464a1.962,1.962,0,0,0,1.96-1.96v-40.8A1.963,1.963,0,0,0,622.367,223.726Z" transform="translate(-503.819 -208.176)" fill="#3f3d56"/>
  <path id="Path_167" data-name="Path 167" d="M626.948,230.223H567.494a1.05,1.05,0,0,0-1.048,1.05v39.79a1.05,1.05,0,0,0,1.048,1.048h59.454A1.05,1.05,0,0,0,628,271.063v-39.79a1.05,1.05,0,0,0-1.048-1.05Z" transform="translate(-508.734 -213.257)" fill="#fff"/>
  <path id="Path_168" data-name="Path 168" d="M661.669,487.757H626.3a.651.651,0,0,1-.637-.785l.549-2.607a.654.654,0,0,1,.637-.517H661.12a.653.653,0,0,1,.637.517l.549,2.607a.651.651,0,0,1-.637.785Z" transform="translate(-553.946 -411.622)" fill="#2f2e41"/>
  <rect id="Rectangle_213" data-name="Rectangle 213" width="1.089" height="0.654" rx="0.327" transform="translate(77.37 72.695)" fill="#3f3d56"/>
  <rect id="Rectangle_214" data-name="Rectangle 214" width="1.089" height="0.654" rx="0.327" transform="translate(79.139 72.695)" fill="#3f3d56"/>
  <rect id="Rectangle_215" data-name="Rectangle 215" width="1.089" height="0.654" rx="0.327" transform="translate(80.908 72.695)" fill="#3f3d56"/>
  <rect id="Rectangle_216" data-name="Rectangle 216" width="1.089" height="0.654" rx="0.327" transform="translate(82.677 72.695)" fill="#3f3d56"/>
  <rect id="Rectangle_217" data-name="Rectangle 217" width="1.089" height="0.654" rx="0.327" transform="translate(84.446 72.695)" fill="#3f3d56"/>
  <rect id="Rectangle_218" data-name="Rectangle 218" width="1.089" height="0.654" rx="0.327" transform="translate(86.215 72.695)" fill="#3f3d56"/>
  <rect id="Rectangle_219" data-name="Rectangle 219" width="1.089" height="0.654" rx="0.327" transform="translate(87.984 72.695)" fill="#3f3d56"/>
  <rect id="Rectangle_220" data-name="Rectangle 220" width="1.089" height="0.654" rx="0.327" transform="translate(89.753 72.695)" fill="#3f3d56"/>
  <rect id="Rectangle_221" data-name="Rectangle 221" width="1.089" height="0.654" rx="0.327" transform="translate(91.522 72.695)" fill="#3f3d56"/>
  <rect id="Rectangle_222" data-name="Rectangle 222" width="1.089" height="0.654" rx="0.327" transform="translate(93.291 72.695)" fill="#3f3d56"/>
  <rect id="Rectangle_223" data-name="Rectangle 223" width="1.089" height="0.654" rx="0.327" transform="translate(95.06 72.695)" fill="#3f3d56"/>
  <rect id="Rectangle_224" data-name="Rectangle 224" width="1.089" height="0.654" rx="0.327" transform="translate(96.829 72.695)" fill="#3f3d56"/>
  <rect id="Rectangle_225" data-name="Rectangle 225" width="1.089" height="0.654" rx="0.327" transform="translate(98.598 72.695)" fill="#3f3d56"/>
  <rect id="Rectangle_226" data-name="Rectangle 226" width="1.089" height="0.654" rx="0.327" transform="translate(100.367 72.695)" fill="#3f3d56"/>
  <rect id="Rectangle_227" data-name="Rectangle 227" width="1.089" height="0.654" rx="0.327" transform="translate(102.136 72.695)" fill="#3f3d56"/>
  <rect id="Rectangle_228" data-name="Rectangle 228" width="1.089" height="0.654" rx="0.327" transform="translate(103.905 72.695)" fill="#3f3d56"/>
  <rect id="Rectangle_229" data-name="Rectangle 229" width="1.089" height="0.654" rx="0.327" transform="translate(77.349 73.785)" fill="#3f3d56"/>
  <rect id="Rectangle_230" data-name="Rectangle 230" width="1.089" height="0.654" rx="0.327" transform="translate(79.118 73.785)" fill="#3f3d56"/>
  <rect id="Rectangle_231" data-name="Rectangle 231" width="1.089" height="0.654" rx="0.327" transform="translate(80.887 73.785)" fill="#3f3d56"/>
  <rect id="Rectangle_232" data-name="Rectangle 232" width="1.089" height="0.654" rx="0.327" transform="translate(82.656 73.785)" fill="#3f3d56"/>
  <rect id="Rectangle_233" data-name="Rectangle 233" width="1.089" height="0.654" rx="0.327" transform="translate(84.425 73.785)" fill="#3f3d56"/>
  <rect id="Rectangle_234" data-name="Rectangle 234" width="1.089" height="0.654" rx="0.327" transform="translate(86.194 73.785)" fill="#3f3d56"/>
  <rect id="Rectangle_235" data-name="Rectangle 235" width="1.089" height="0.654" rx="0.327" transform="translate(87.963 73.785)" fill="#3f3d56"/>
  <rect id="Rectangle_236" data-name="Rectangle 236" width="1.089" height="0.654" rx="0.327" transform="translate(89.732 73.785)" fill="#3f3d56"/>
  <rect id="Rectangle_237" data-name="Rectangle 237" width="1.089" height="0.654" rx="0.327" transform="translate(91.501 73.785)" fill="#3f3d56"/>
  <rect id="Rectangle_238" data-name="Rectangle 238" width="1.089" height="0.654" rx="0.327" transform="translate(93.27 73.785)" fill="#3f3d56"/>
  <rect id="Rectangle_239" data-name="Rectangle 239" width="1.089" height="0.654" rx="0.327" transform="translate(95.039 73.785)" fill="#3f3d56"/>
  <rect id="Rectangle_240" data-name="Rectangle 240" width="1.089" height="0.654" rx="0.327" transform="translate(96.808 73.785)" fill="#3f3d56"/>
  <rect id="Rectangle_241" data-name="Rectangle 241" width="1.089" height="0.654" rx="0.327" transform="translate(98.577 73.785)" fill="#3f3d56"/>
  <rect id="Rectangle_242" data-name="Rectangle 242" width="1.089" height="0.654" rx="0.327" transform="translate(100.346 73.785)" fill="#3f3d56"/>
  <rect id="Rectangle_243" data-name="Rectangle 243" width="1.089" height="0.654" rx="0.327" transform="translate(102.114 73.785)" fill="#3f3d56"/>
  <rect id="Rectangle_244" data-name="Rectangle 244" width="1.089" height="0.654" rx="0.327" transform="translate(103.884 73.785)" fill="#3f3d56"/>
  <rect id="Rectangle_245" data-name="Rectangle 245" width="8.715" height="0.654" rx="0.327" transform="translate(84.937 75.093)" fill="#3f3d56"/>
  <path id="Path_169" data-name="Path 169" d="M795.747,712.751l-1.68-2.7-.336,1.543c-.059.27-.118.545-.172.817-.477-.407-.985-.784-1.482-1.146q-2.288-1.66-4.573-3.325l.477,2.767a19.637,19.637,0,0,0,1.329,5c.081.176.168.351.262.521h7.09a2.285,2.285,0,0,0,.118-.488.171.171,0,0,0,0-.033A4.9,4.9,0,0,0,795.747,712.751Z" transform="translate(-683.871 -586.888)" fill="#f0f0f0"/>
  <path id="Path_170" data-name="Path 170" d="M355.747,712.751l-1.68-2.7-.336,1.543c-.059.27-.118.545-.172.817-.477-.407-.985-.784-1.482-1.146q-2.288-1.66-4.573-3.325l.477,2.767a19.634,19.634,0,0,0,1.329,5c.081.176.168.351.262.521h7.09a2.291,2.291,0,0,0,.118-.488.167.167,0,0,0,0-.033A4.9,4.9,0,0,0,355.747,712.751Z" transform="translate(-320.822 -586.888)" fill="#f0f0f0"/>
  <path id="Path_171" data-name="Path 171" d="M787.28,745.473l-60.081.067a.259.259,0,0,1,0-.519l60.081-.067a.259.259,0,0,1,0,.519Z" transform="translate(-644.023 -615.837)" fill="#cacaca"/>
  <path id="Path_172" data-name="Path 172" d="M255.275,745.473l-60.081.067a.259.259,0,1,1,0-.519l60.081-.067a.259.259,0,1,1,0,.519Z" transform="translate(-194.934 -615.837)" fill="#cacaca"/>
  <path id="Path_173" data-name="Path 173" d="M267.768,161.6c-1.039.309-2.009-.56-2.732-1.384l.257.305a9.928,9.928,0,0,0-3.379,5.127c-.66,1.974-1.028,4.042-1.774,5.987a8.775,8.775,0,0,1-3.789,4.793c-2.466,1.3-5.488.708-8.112-.229l-.1-.037a16.716,16.716,0,0,0,1.913-6.406,15.2,15.2,0,0,1-4.545,5.332,34.893,34.893,0,0,1-4.929-2.741c-1.013-.678-2.081-1.553-2.2-2.767a3.179,3.179,0,0,1,1.841-2.885,17.516,17.516,0,0,1,3.44-1.124,4.874,4.874,0,0,0,2.946-1.961c1.4-2.405-.957-5.8.547-8.142a5.469,5.469,0,0,1,3.512-1.935,46.429,46.429,0,0,1,6.184-1.044,12.991,12.991,0,0,1,5.456.338,5.4,5.4,0,0,1,3.689,3.754,5.86,5.86,0,0,1,2.634,2.137C269.171,159.728,268.868,161.271,267.768,161.6Z" transform="translate(-228.903 -152.358)" fill="#2f2e41"/>
  <path id="Path_174" data-name="Path 174" d="M358.227,182.339a6.373,6.373,0,0,0-1.537,3.4c-2.067,3.779.889,7.024,4.668,9.092a7.742,7.742,0,0,0,4.946.862l.158-.675.214.608s2.46,8.126,3.272,8.6c-.308-1.446-.661-8.142-.832-9.553-.237-1.921.59-4.78,1.187-6.519a10.266,10.266,0,0,0,.562-3.331v-.05l.581,1.867,2.116-.9c-.394-2.257,0-4.82-4.719-4.6-2.552-1.755-4.8-2.023-6.645-1.525-.238-.368-1.612.322-2.009.128" transform="translate(-328.199 -173.505)" fill="#2f2e41"/>
  <path id="Path_175" data-name="Path 175" d="M740.417,231.273v39.79a1.05,1.05,0,0,1-1.048,1.048H718.4a25.727,25.727,0,0,1-5.613-7.552q-.137-.275-.261-.556a25.5,25.5,0,0,1-2.266-8.722c-.015-.185-.028-.37-.037-.558-.028-.479-.041-.965-.041-1.453a25.608,25.608,0,0,1,1.806-9.48c.072-.187.148-.373.227-.558a25.8,25.8,0,0,1,12.278-13.01h14.873A1.05,1.05,0,0,1,740.417,231.273Z" transform="translate(-623.246 -213.257)" fill="#0306ff"/>
  <path id="Path_176" data-name="Path 176" d="M629.923,253.795H574.292a.221.221,0,1,1,0-.443h55.631a.221.221,0,1,1,0,.442Z" transform="translate(-514.095 -231.347)" fill="#cacaca"/>
  <ellipse id="Ellipse_31" data-name="Ellipse 31" cx="1.297" cy="1.325" rx="1.297" ry="1.325" transform="translate(69.131 18.225)" fill="#3f3d56"/>
  <ellipse id="Ellipse_32" data-name="Ellipse 32" cx="1.297" cy="1.325" rx="1.297" ry="1.325" transform="translate(72.761 18.225)" fill="#3f3d56"/>
  <ellipse id="Ellipse_33" data-name="Ellipse 33" cx="1.297" cy="1.325" rx="1.297" ry="1.325" transform="translate(76.39 18.225)" fill="#3f3d56"/>
  <path id="Path_177" data-name="Path 177" d="M805.748,237.51h-3.182a.241.241,0,1,0,0,.482h3.182a.241.241,0,1,0,0-.482Z" transform="translate(-695.249 -218.957)" fill="#3f3d56"/>
  <path id="Path_178" data-name="Path 178" d="M805.748,241.66h-3.182a.241.241,0,1,0,0,.482h3.182a.241.241,0,1,0,0-.482Z" transform="translate(-695.249 -222.202)" fill="#3f3d56"/>
  <path id="Path_179" data-name="Path 179" d="M805.748,245.8h-3.182a.241.241,0,1,0,0,.482h3.182a.241.241,0,1,0,0-.482Z" transform="translate(-695.249 -225.444)" fill="#3f3d56"/>
  <rect id="Rectangle_246" data-name="Rectangle 246" width="8.842" height="1.891" rx="0.945" transform="translate(73.534 35.372)" fill="#0306ff"/>
  <rect id="Rectangle_247" data-name="Rectangle 247" width="17.823" height="1.891" rx="0.945" transform="translate(68.957 39.154)" fill="#e6e6e6"/>
  <rect id="Rectangle_248" data-name="Rectangle 248" width="17.823" height="1.891" rx="0.945" transform="translate(68.957 42.935)" fill="#e6e6e6"/>
  <path id="Path_180" data-name="Path 180" d="M574.015,388.539a6.5,6.5,0,0,1-.41,2.281h-6.112a1.05,1.05,0,0,1-1.048-1.048v-7.687a6.465,6.465,0,0,1,1.033-.083,6.536,6.536,0,0,1,6.536,6.537Z" transform="translate(-501.31 -331.967)" fill="#0306ff"/>
  <path id="Path_181" data-name="Path 181" d="M740.62,267.285v-.558h-9.349v-6.465h-.556v6.465H720v-6.465h-.556v6.465h-7.077c-.078.185-.155.37-.227.558h7.3v10.933h-9.068c.009.187.022.373.037.558h9.031V287.5h-6.765q.124.281.261.556h6.5v7.332H720v-7.332h10.716v7.332h.556v-7.332h9.349V287.5h-9.349v-8.722h9.349v-.558h-9.349V267.285Zm-9.9,20.213H720v-8.722h10.716Zm0-9.28H720V267.285h10.716Z" transform="translate(-623.406 -236.752)" opacity="0.2"/>
  <path id="Path_182" data-name="Path 182" d="M764.675,328.318a.582.582,0,0,1-.422-1.009l.04-.159-.016-.038a1.564,1.564,0,0,0-2.884.011,13.889,13.889,0,0,0-1.22,3.475,4.629,4.629,0,0,0,.081,1.591,18.545,18.545,0,0,1-1.687-7.7,17.92,17.92,0,0,1,.111-2q.092-.815.255-1.619a18.759,18.759,0,0,1,3.72-7.951,4.993,4.993,0,0,0,2.076-2.154,3.807,3.807,0,0,0,.346-1.041c-.1.013-.2.022-.3.028l-.1.005h-.012a.577.577,0,0,1-.474-.94l.131-.161c.066-.083.134-.164.2-.247a.3.3,0,0,0,.022-.025l.229-.282a1.668,1.668,0,0,0-.547-.529,1.923,1.923,0,0,0-2.37.553,3.015,3.015,0,0,0-.466,2.524,6.683,6.683,0,0,0,.925,2.061c-.042.053-.085.1-.126.157a18.892,18.892,0,0,0-1.971,3.122,7.85,7.85,0,0,0-.469-3.646,13.146,13.146,0,0,0-2.03-2.929,1.611,1.611,0,0,0-2.87.791l0,.041q.165.093.323.2a.79.79,0,0,1-.319,1.437l-.016,0a7.856,7.856,0,0,0,.207,1.175,8.091,8.091,0,0,0,4.029,5.071c.065.033.128.066.192.1a19.272,19.272,0,0,0-1.037,4.882,18.271,18.271,0,0,0,.013,2.951l-.005-.035a4.831,4.831,0,0,0-1.649-2.789c-1.269-1.042-3.062-1.426-4.431-2.264a.906.906,0,0,0-1.388.882l.006.037a5.309,5.309,0,0,1,.595.287q.165.093.323.2a.79.79,0,0,1-.318,1.437l-.016,0-.033.005a7.865,7.865,0,0,0,1.447,2.265,8.1,8.1,0,0,0,5.873,2.577h0a19.263,19.263,0,0,0,1.294,3.778h4.623c.017-.051.032-.1.046-.156a5.253,5.253,0,0,1-1.279-.076c.343-.421.686-.845,1.029-1.266l.022-.025c.174-.215.349-.429.523-.645h0a7.7,7.7,0,0,0-.225-1.96ZM759.381,317.9l0,0,0,.007Zm-1.024,9.232-.04-.089c0-.065,0-.129,0-.2,0-.018,0-.036,0-.055.015.114.028.229.045.343Z" transform="translate(-654.291 -273.592)" fill="#2f2e41"/>
</svg>
