<svg xmlns="http://www.w3.org/2000/svg" width="102.835" height="123.21" viewBox="0 0 102.835 123.21">
  <g id="Group_580" data-name="Group 580" transform="translate(-682.93 -11318.79)">
    <g id="Group_579" data-name="Group 579">
      <rect id="Rectangle_62" data-name="Rectangle 62" width="95.619" height="45.373" transform="translate(690.146 11321.411)" fill="#e6e6e6"/>
      <rect id="Rectangle_75" data-name="Rectangle 75" width="90.151" height="37.856" transform="translate(692.88 11325.302)" fill="#fff"/>
      <rect id="Rectangle_80" data-name="Rectangle 80" width="95.619" height="4.062" transform="translate(690.105 11318.79)" fill="#0306ff"/>
      <circle id="Ellipse_90" data-name="Ellipse 90" cx="0.753" cy="0.753" r="0.753" transform="translate(725.306 11320.426)" fill="#fff"/>
      <circle id="Ellipse_91" data-name="Ellipse 91" cx="0.753" cy="0.753" r="0.753" transform="translate(727.139 11320.426)" fill="#fff"/>
      <circle id="Ellipse_92" data-name="Ellipse 92" cx="0.753" cy="0.753" r="0.753" transform="translate(728.973 11320.426)" fill="#fff"/>
      <rect id="Rectangle_208" data-name="Rectangle 208" width="14.988" height="25.605" transform="translate(753.294 11331.429)" fill="#f2f2f2"/>
      <path id="Path_220" data-name="Path 220" d="M0,0H30.232V7.048H0Z" transform="translate(732.254 11331.428)" fill="#0306ff"/>
      <rect id="Rectangle_210" data-name="Rectangle 210" width="30.232" height="7.583" transform="translate(732.254 11339.934)" fill="#f2f2f2"/>
      <rect id="Rectangle_211" data-name="Rectangle 211" width="30.232" height="7.048" transform="translate(732.254 11349.261)" fill="#f2f2f2"/>
      <path id="Path_128" data-name="Path 128" d="M340.613,433.6a3.685,3.685,0,0,0-4.081-3.684,3.552,3.552,0,0,0-.484.089l-12.47-10.689.745-4.017-6.146-1.992-1.853,6.437a3.733,3.733,0,0,0,1.584,4.167l15.34,9.7a3.511,3.511,0,0,0,.019.361,3.685,3.685,0,0,0,4.473,3.2,3.585,3.585,0,0,0,.434-.125A3.7,3.7,0,0,0,340.613,433.6Z" transform="translate(382.327 10959.399)" fill="#9f616a"/>
      <path id="Path_129" data-name="Path 129" d="M268.214,571.807h16.078c0,.462,16.57.837,16.57.837a4.3,4.3,0,0,1,.707.67,4.156,4.156,0,0,1,.971,2.679v.67a4.188,4.188,0,0,1-4.186,4.186H268.214a4.19,4.19,0,0,1-4.186-4.186v-.67A4.192,4.192,0,0,1,268.214,571.807Z" transform="translate(429.335 10833.009)" fill="#3f3d56"/>
      <rect id="Rectangle_212" data-name="Rectangle 212" width="4.353" height="28.13" transform="translate(700.553 11413.012)" fill="#3f3d56"/>
      <path id="Path_130" data-name="Path 130" d="M315.782,734.837c0,.527-6.6.2-14.735.2s-14.735.323-14.735-.2,6.6-4.7,14.735-4.7S315.782,734.31,315.782,734.837Z" transform="translate(411.646 10706.655)" fill="#3f3d56"/>
      <path id="Path_131" data-name="Path 131" d="M196.7,548.931h4.105l1.953-10.648H196.7Z" transform="translate(516.887 10888.762)" fill="#9f616a"/>
      <path id="Path_132" data-name="Path 132" d="M405.071,733.333h13.238v-.167a5.153,5.153,0,0,0-5.153-5.153h-8.086Z" transform="translate(302.078 10708.339)" fill="#2f2e41"/>
      <path id="Path_133" data-name="Path 133" d="M327.865,556.713l8.185-18.354a6.726,6.726,0,0,0-2.953-8.635l-17.753-9.52-8.1-.689-7.473-.679-.054.091a7.564,7.564,0,0,0-.59,5.935c.824,2.308,2.967,4.111,6.369,5.359,7.942,2.912,17.116,5.4,20.691,6.335a1.156,1.156,0,0,1,.74.589,1.172,1.172,0,0,1,.066.937l-7.6,17.084a1.507,1.507,0,0,0,1.276,2.019l5.682.414q.072.007.144.007A1.506,1.506,0,0,0,327.865,556.713Z" transform="translate(401.773 10874.376)" fill="#cbcbcb"/>
      <path id="Path_134" data-name="Path 134" d="M183.714,548.931h4.105l1.953-10.648h-6.059Z" transform="translate(536.145 10888.762)" fill="#9f616a"/>
      <path id="Path_135" data-name="Path 135" d="M392.081,733.333h13.238v-.167a5.153,5.153,0,0,0-5.153-5.153h-8.086Z" transform="translate(313.426 10708.339)" fill="#2f2e41"/>
      <path id="Path_136" data-name="Path 136" d="M319.7,561.935l8.185-18.354a6.726,6.726,0,0,0-2.953-8.635l-17.753-9.52-8.1-.689-5.853-.508v-.08a7.564,7.564,0,0,0-.59,5.935c.824,2.308,1.292,4.111,4.695,5.359,7.942,2.912,17.116,5.4,20.691,6.335a1.155,1.155,0,0,1,.74.589,1.171,1.171,0,0,1,.066.937l-7.6,17.084a1.507,1.507,0,0,0,1.276,2.019l5.682.414q.072.007.144.007A1.506,1.506,0,0,0,319.7,561.935Z" transform="translate(406.928 10870.158)" fill="#cbcbcb"/>
      <path id="Path_137" data-name="Path 137" d="M291.965,417.267c.392-.278,6.028,2.679,7.033.335-4.688-11.721-1.458-16.782-4.329-23.5a8.37,8.37,0,0,0-5.548-4.749l-7.451-.376-.039.019a8.709,8.709,0,0,0-4.762,9.239c.026,7.315,4.4,12.894,2.873,18.2a1.715,1.715,0,0,0,.162,1.334,1.636,1.636,0,0,0,1.043.773l9.838-1.312a1.663,1.663,0,0,0,1.345-.26Z" transform="translate(419.235 10978.772)" fill="#2f2e41"/>
      <circle id="Ellipse_29" data-name="Ellipse 29" cx="8.225" cy="8.225" r="8.225" transform="translate(695.165 11349.17)" fill="#9f616a"/>
      <path id="Path_138" data-name="Path 138" d="M271.459,301.716c.437.191,1.332-3.291.931-3.987-.6-1.036-.561-1.028-.957-1.714a1.987,1.987,0,0,1,.028-2.226,1.172,1.172,0,0,1,1.932.233c-.15-1.436,1.27-2.59,2.677-2.915s2.891-.123,4.306-.412c1.642-.335,3.35-1.711,2.695-3.517a2.543,2.543,0,0,0-.5-.815,6.272,6.272,0,0,0-2.851-1.566,18.879,18.879,0,0,0-6.638-1.39,9.644,9.644,0,0,0-8.521,6.232,8.757,8.757,0,0,0-.363,1.348,9.04,9.04,0,0,0,5.611,9.928Z" transform="translate(429.312 11063.28)" fill="#2f2e41"/>
      <path id="Path_139" data-name="Path 139" d="M480.4,435.231l.943,5.6a.344.344,0,0,1-.02.185l-7.4,18.49a.345.345,0,0,1-.665-.114l-.313-7.43a.345.345,0,0,1,.025-.144l6.77-16.66a.345.345,0,0,1,.659.073Z" transform="translate(243.441 10942.094)" fill="#3f3d56"/>
      <path id="Path_140" data-name="Path 140" d="M268.008,293.823l.9,4.811-6.567,16.872-.853-5.428Z" transform="translate(455.292 11083.961)" fill="#4db8ef"/>
      <path id="Path_141" data-name="Path 141" d="M367.227,517.435c.161.631,21.374,1.313,21.594,1.123a4.474,4.474,0,0,0,.51-.789c.222-.4.428-.8.428-.8l-.349-6.709-20.9-2.233s-.924,5.6-1.215,8.17A6.18,6.18,0,0,0,367.227,517.435Z" transform="translate(334.309 10883.92)" fill="#3f3d56"/>
      <path id="Path_142" data-name="Path 142" d="M212.549,375.285l0,5.78-9.242-.657.409-5.751Z" transform="translate(505.748 11019.617)" opacity="0.1"/>
      <path id="Path_143" data-name="Path 143" d="M168.49,381.1l.056-.007-.436,2.457-5.135-.365.175-2.465Z" transform="translate(541.201 11014.832)" opacity="0.1"/>
      <path id="Path_144" data-name="Path 144" d="M367.227,548.881c.162.631,21.374,1.313,21.594,1.123a4.465,4.465,0,0,0,.51-.789L367.3,547.648A6.181,6.181,0,0,0,367.227,548.881Z" transform="translate(334.35 10852.409)" opacity="0.1"/>
      <path id="Path_145" data-name="Path 145" d="M311.988,465.154l17.894,3.339a3.524,3.524,0,0,0,.151.329,3.693,3.693,0,0,0,2.37,1.85,3.684,3.684,0,1,0-.841-6.831,3.544,3.544,0,0,0-.417.262L315.6,458.795l-.8-4.007-6.447.427.668,6.717A3.664,3.664,0,0,0,311.988,465.154Z" transform="translate(394.144 10926.369)" fill="#9f616a"/>
      <path id="Path_146" data-name="Path 146" d="M306.957,425.723l9.368-3.079-2.185-6.274a3.74,3.74,0,0,0-4.147-2.459h0a3.74,3.74,0,0,0-3.125,3.73Z" transform="translate(395.33 10959.118)" fill="#2f2e41"/>
      <path id="Path_147" data-name="Path 147" d="M292.225,753.814H213.649a.206.206,0,1,1,0-.412h78.576a.206.206,0,1,1,0,.412Z" transform="translate(469.487 10688.186)" fill="#cbcbcb"/>
      <path id="Path_148" data-name="Path 148" d="M712.077,719.4a13.166,13.166,0,0,1,5.444,6.2,11.335,11.335,0,0,1-13.648-7.063A13.167,13.167,0,0,1,712.077,719.4Z" transform="translate(40.929 10716.098)" fill="#f1f1f1"/>
      <path id="Path_149" data-name="Path 149" d="M731.5,699.508a13.166,13.166,0,0,0,6.617,4.925,11.336,11.336,0,0,0-8.144-13.031A13.165,13.165,0,0,0,731.5,699.508Z" transform="translate(19.661 10737.399)" fill="#f1f1f1"/>
      <path id="Path_150" data-name="Path 150" d="M712.16,753.417H688.649a.206.206,0,1,1,0-.412H712.16a.206.206,0,1,1,0,.412Z" transform="translate(51.529 10688.501)" fill="#cbcbcb"/>
    </g>
  </g>
</svg>
