<svg xmlns="http://www.w3.org/2000/svg" xmlns:xlink="http://www.w3.org/1999/xlink" width="54" height="55" viewBox="0 0 54 55">
  <defs>
    <clipPath id="clip-path">
      <rect id="Rectangle_413" data-name="Rectangle 413" width="54" height="55" fill="#4db8ef"/>
    </clipPath>
  </defs>
  <g id="Mask_Group_52" data-name="Mask Group 52" clip-path="url(#clip-path)">
    <g id="Group_526" data-name="Group 526" transform="translate(-0.222 0.867)">
      <g id="Group_525" data-name="Group 525" transform="translate(0)">
        <path id="Path_650" data-name="Path 650" d="M120.086,0H73.576A3.577,3.577,0,0,0,70,3.578V38.46a3.578,3.578,0,0,0,3.578,3.578h16.1V47.4H86.1a2.683,2.683,0,0,0-2.683,2.683v.894A2.683,2.683,0,0,0,86.1,53.665h21.466a2.683,2.683,0,0,0,2.683-2.683v-.894a2.683,2.683,0,0,0-2.683-2.683h-3.578V42.038h16.1a3.578,3.578,0,0,0,3.578-3.578V3.578A3.577,3.577,0,0,0,120.085,0ZM108.458,50.088v.894a.893.893,0,0,1-.894.894H86.1a.894.894,0,0,1-.894-.894v-.894a.894.894,0,0,1,.894-.895h21.466a.894.894,0,0,1,.894.895ZM102.2,47.4H91.464V42.038H102.2Zm19.677-8.944a1.789,1.789,0,0,1-1.789,1.789H73.575a1.789,1.789,0,0,1-1.789-1.789V3.578a1.788,1.788,0,0,1,1.789-1.789h46.51a1.788,1.788,0,0,1,1.789,1.789Z" transform="translate(-69.998)" fill="#4db8ef"/>
      </g>
      <path id="Path_651" data-name="Path 651" d="M152.053,37.332H109.121a1.789,1.789,0,0,0-1.789,1.789v31.3a1.789,1.789,0,0,0,1.789,1.789h42.932a1.789,1.789,0,0,0,1.789-1.789v-31.3a1.789,1.789,0,0,0-1.789-1.789Zm0,33.093H109.121v-31.3h42.932Z" transform="translate(-103.754 -33.754)" fill="#4db8ef"/>
      <path id="Path_652" data-name="Path 652" d="M322.892,459.121h3.578a.894.894,0,0,0,0-1.789h-3.578a.894.894,0,0,0,0,1.789Z" transform="translate(-297.849 -413.506)" fill="#4db8ef"/>
      <path id="Path_653" data-name="Path 653" d="M378.9,200.086h14.311a.894.894,0,0,0,0-1.789h-.895V187.564a.894.894,0,1,0-1.789,0V198.3h-1.789v-8.944a.894.894,0,1,0-1.789,0V198.3h-1.789v-7.155a.894.894,0,0,0-1.789,0V198.3H381.58v-5.367a.894.894,0,1,0-1.789,0V198.3H378.9a.894.894,0,0,0,0,1.789Z" transform="translate(-348.486 -168.781)" fill="#4db8ef"/>
      <path id="Path_654" data-name="Path 654" d="M397.556,131.17a.878.878,0,0,0,.331-.064,33.559,33.559,0,0,0,9.507-6.7v.5a.894.894,0,0,0,1.789,0v-2.683a.895.895,0,0,0-.894-.895h-2.682a.894.894,0,0,0,0,1.789h.545a32.512,32.512,0,0,1-8.928,6.325.894.894,0,0,0,.333,1.725Z" transform="translate(-365.357 -109.704)" fill="#4db8ef"/>
      <path id="Path_655" data-name="Path 655" d="M155.4,112a10.733,10.733,0,1,0,7.589,3.144A10.732,10.732,0,0,0,155.4,112Zm.894,1.834a8.944,8.944,0,0,1,6.655,4.123l-6.655,3.327Zm-.894,17.844a8.944,8.944,0,0,1-.895-17.844v8.9a.959.959,0,0,0,.259.635l6.288,6.288a8.888,8.888,0,0,1-5.652,2.021Zm6.923-3.292-5.411-5.411,6.842-3.417a8.888,8.888,0,0,1-1.431,8.828Z" transform="translate(-137.514 -101.267)" fill="#4db8ef"/>
    </g>
  </g>
</svg>
