<svg xmlns="http://www.w3.org/2000/svg" xmlns:xlink="http://www.w3.org/1999/xlink" width="114" height="125" viewBox="0 0 114 125">
  <defs>
    <clipPath id="clip-path">
      <rect id="Rectangle_335" data-name="Rectangle 335" width="114" height="125" fill="#4db8ef" stroke="#4db8ef" stroke-width="1"/>
    </clipPath>
  </defs>
  <g id="Mask_Group_25" data-name="Mask Group 25" clip-path="url(#clip-path)">
    <g id="noun_analysis_1797236_1_" data-name="noun_analysis_1797236 (1)" transform="translate(7.471 12.323)">
      <g id="_16-analysis" data-name="16-analysis">
        <path id="Path_34" data-name="Path 34" d="M67.087,113.034H5.75c-3.176,0-5.75-3.163-5.75-7.065V21.194a2.657,2.657,0,0,1,.556-1.672L15.89.683A1.753,1.753,0,0,1,17.251,0H67.087c3.176,0,5.75,3.163,5.75,7.065V40.033a1.958,1.958,0,1,1-3.834,0V7.065A2.17,2.17,0,0,0,67.087,4.71H18.037l-14.2,17.45v83.81a2.17,2.17,0,0,0,1.917,2.355H67.087A2.17,2.17,0,0,0,69,105.969a1.958,1.958,0,1,1,3.834,0C72.837,109.871,70.263,113.034,67.087,113.034Z" transform="translate(0 0)" fill="#4db8ef"/>
        <path id="Path_35" data-name="Path 35" d="M23.817,26.463H2.646a2.646,2.646,0,1,1,0-5.293H21.171V2.646a2.646,2.646,0,0,1,5.293,0V23.817A2.646,2.646,0,0,1,23.817,26.463Z" transform="translate(0 0)" fill="#4db8ef"/>
        <path id="Path_36" data-name="Path 36" d="M38.524,55.171a2.646,2.646,0,0,1-2.646-2.646V39.293H25.293V52.524a2.646,2.646,0,0,1-5.293,0V36.646A2.646,2.646,0,0,1,22.646,34H38.524a2.646,2.646,0,0,1,2.646,2.646V52.524A2.646,2.646,0,0,1,38.524,55.171Z" transform="translate(19.065 41.985)" fill="#4db8ef"/>
        <path id="Path_37" data-name="Path 37" d="M48.524,61.756a2.646,2.646,0,0,1-2.646-2.646V35.293H35.293V59.11a2.646,2.646,0,0,1-5.293,0V32.646A2.646,2.646,0,0,1,32.646,30H48.524a2.646,2.646,0,0,1,2.646,2.646V59.11A2.646,2.646,0,0,1,48.524,61.756Z" transform="translate(28.598 35.4)" fill="#4db8ef"/>
        <path id="Path_38" data-name="Path 38" d="M58.524,68.341A2.646,2.646,0,0,1,55.878,65.7v-34.4H45.293V65.7A2.646,2.646,0,0,1,40,65.7V28.646A2.646,2.646,0,0,1,42.646,26H58.524a2.646,2.646,0,0,1,2.646,2.646V65.7A2.646,2.646,0,0,1,58.524,68.341Z" transform="translate(38.13 28.815)" fill="#4db8ef"/>
        <path id="Path_39" data-name="Path 39" d="M22.656,64.936a2.646,2.646,0,0,1-1.879-4.525L47.24,33.948a2.646,2.646,0,0,1,3.731,0L59.7,42.681l29.877-29.9a2.646,2.646,0,0,1,4.525,1.879V30.534a2.646,2.646,0,0,1-5.293,0v-9.5L61.584,48.291a2.646,2.646,0,0,1-3.731,0l-8.733-8.733L24.535,64.142A2.646,2.646,0,0,1,22.656,64.936Z" transform="translate(5.194 13.752)" fill="#4db8ef"/>
        <path id="Path_40" data-name="Path 40" d="M58.524,17.293H42.646a2.646,2.646,0,0,1,0-5.293H58.524a2.646,2.646,0,1,1,0,5.293Z" transform="translate(38.13 16.106)" fill="#4db8ef"/>
        <path id="Path_41" data-name="Path 41" d="M37.11,65.219a29.11,29.11,0,1,1,29.11-29.11,2.646,2.646,0,0,1-2.646,2.646H37.11a2.646,2.646,0,0,1-2.646-2.646V12.451A23.817,23.817,0,0,0,37.11,59.927a2.646,2.646,0,0,1,0,5.293Zm2.646-31.756H60.768A23.817,23.817,0,0,0,39.756,12.451Z" transform="translate(4.64 11.524)" fill="#4db8ef"/>
        <path id="Path_42" data-name="Path 42" d="M16.656,32.8a2.646,2.646,0,0,1-1.879-4.525L25.362,17.686a2.646,2.646,0,0,1,3.731,3.731L18.508,32A2.646,2.646,0,0,1,16.656,32.8Z" transform="translate(13.814 22.397)" fill="#4db8ef"/>
      </g>
    </g>
  </g>
</svg>
